<?xml version="1.0" encoding="utf-8"?>
<!-- Generator: Adobe Illustrator 24.1.0, SVG Export Plug-In . SVG Version: 6.00 Build 0)  -->
<svg version="1.1" id="masterPlan" xmlns="http://www.w3.org/2000/svg" xmlns:xlink="http://www.w3.org/1999/xlink" x="0px" y="0px"
	 viewBox="0 0 469 499" style="enable-background:new 0 0 469 499;" xml:space="preserve">
<style type="text/css">
	.st0{fill:#0094B3;}
	.st1{fill:#FFFFFF;}
	.st2{fill:none;stroke:#0094B3;stroke-width:0.5;}
	.st3{fill:#4AB9F0;}
	.st4{fill:#BED600;}
	.st5{opacity:0.24;}
	.st6{fill:#FFFFFF;stroke:#FF0D0D;stroke-width:1.5;}
	.st7{fill:#FFFFFF;stroke:#0094B3;stroke-width:0.5;stroke-miterlimit:10;}
	.st8{fill:#FF0D0D;}
	.st9{fill:#BCBCBC;}
	.st10{fill:#72F2F2;}
	.st11{fill:#6F6E6E;}
	.st12{fill:none;stroke:#0094B3;stroke-width:0.5;stroke-miterlimit:10;}
	.st13{fill:#FAF5F0;}
	.st14{fill:#333333;}
	.st15{fill:#707070;}
	.st16{fill:#231F20;}
	.st17{fill:#E2E8B3;}
	.st18{fill:#BCBCBC;stroke:#FF0D0D;stroke-width:1.5;}
	.st19{fill:none;}
</style>
<rect id="southEastCouch-1" x="4.8" y="334" class="st0" width="34" height="15.5"/>
<rect id="southEastCouch-2" x="4.8" y="361" class="st0" width="34" height="15.5"/>
<g id="twentytwoInchTable-7" transform="translate(930 434)">
	<path class="st1" d="M-476.4-167.5h8c0.8,0,1.5,0.7,1.5,1.5v8c0,0.8-0.7,1.5-1.5,1.5h-8c-0.8,0-1.5-0.7-1.5-1.5v-8
		C-477.9-166.8-477.2-167.5-476.4-167.5z"/>
	<path class="st2" d="M-476.4-167.2h8c0.7,0,1.3,0.6,1.3,1.3v8c0,0.7-0.6,1.3-1.3,1.3h-8c-0.7,0-1.3-0.6-1.3-1.3v-8
		C-477.7-166.7-477.1-167.2-476.4-167.2z"/>
</g>
<g id="twentytwoInchTable-6" transform="translate(930 434)">
	<path class="st1" d="M-565.2-226h8c0.8,0,1.5,0.7,1.5,1.5v8c0,0.8-0.7,1.5-1.5,1.5h-8c-0.8,0-1.5-0.7-1.5-1.5v-8
		C-566.7-225.4-566-226-565.2-226z"/>
	<path class="st2" d="M-565.2-225.8h8c0.7,0,1.3,0.6,1.3,1.3v8c0,0.7-0.6,1.3-1.3,1.3h-8c-0.7,0-1.3-0.6-1.3-1.3v-8
		C-566.4-225.2-565.9-225.8-565.2-225.8z"/>
</g>
<g id="twentytwoInchTable-5" transform="translate(930 395)">
	<path class="st1" d="M-565.2-206.5h8c0.8,0,1.5,0.7,1.5,1.5v8c0,0.8-0.7,1.5-1.5,1.5h-8c-0.8,0-1.5-0.7-1.5-1.5v-8
		C-566.7-205.9-566-206.5-565.2-206.5z"/>
	<path class="st2" d="M-565.2-206.3h8c0.7,0,1.3,0.6,1.3,1.3v8c0,0.7-0.6,1.3-1.3,1.3h-8c-0.7,0-1.3-0.6-1.3-1.3v-8
		C-566.4-205.7-565.9-206.3-565.2-206.3z"/>
</g>
<g id="twentytwoInchTable-4" transform="translate(930 360)">
	<path class="st1" d="M-565.2-189h8c0.8,0,1.5,0.7,1.5,1.5v8c0,0.8-0.7,1.5-1.5,1.5h-8c-0.8,0-1.5-0.7-1.5-1.5v-8
		C-566.7-188.4-566-189-565.2-189z"/>
	<path class="st2" d="M-565.2-188.8h8c0.7,0,1.3,0.6,1.3,1.3v8c0,0.7-0.6,1.3-1.3,1.3h-8c-0.7,0-1.3-0.6-1.3-1.3v-8
		C-566.4-188.2-565.9-188.8-565.2-188.8z"/>
</g>
<g id="twentytwoInchTable-3" transform="translate(930 321)">
	<path class="st1" d="M-565.2-169.5h8c0.8,0,1.5,0.7,1.5,1.5v8c0,0.8-0.7,1.5-1.5,1.5h-8c-0.8,0-1.5-0.7-1.5-1.5v-8
		C-566.7-168.9-566-169.5-565.2-169.5z"/>
	<path class="st2" d="M-565.2-169.3h8c0.7,0,1.3,0.6,1.3,1.3v8c0,0.7-0.6,1.3-1.3,1.3h-8c-0.7,0-1.3-0.6-1.3-1.3v-8
		C-566.4-168.7-565.9-169.3-565.2-169.3z"/>
</g>
<g id="twentytwoInchTable-2" transform="translate(930 276)">
	<path class="st1" d="M-565.2-147h8c0.8,0,1.5,0.7,1.5,1.5v8c0,0.8-0.7,1.5-1.5,1.5h-8c-0.8,0-1.5-0.7-1.5-1.5v-8
		C-566.7-146.4-566-147-565.2-147z"/>
	<path class="st2" d="M-565.2-146.8h8c0.7,0,1.3,0.6,1.3,1.3v8c0,0.7-0.6,1.3-1.3,1.3h-8c-0.7,0-1.3-0.6-1.3-1.3v-8
		C-566.4-146.2-565.9-146.8-565.2-146.8z"/>
</g>
<g id="twentytwoInchTable-1" transform="translate(930 228)">
	<path class="st1" d="M-565.2-123h8c0.8,0,1.5,0.7,1.5,1.5v8c0,0.8-0.7,1.5-1.5,1.5h-8c-0.8,0-1.5-0.7-1.5-1.5v-8
		C-566.7-122.4-566-123-565.2-123z"/>
	<path class="st2" d="M-565.2-122.8h8c0.7,0,1.3,0.6,1.3,1.3v8c0,0.7-0.6,1.3-1.3,1.3h-8c-0.7,0-1.3-0.6-1.3-1.3v-8
		C-566.4-122.2-565.9-122.8-565.2-122.8z"/>
</g>
<g id="blueStool-22">
	<path class="st3" d="M454,355.2l3,0.3c1.4,0.1,2.6-0.9,2.8-2.2l0.3-3c0.1-1.4-0.9-2.6-2.2-2.8l-3-0.3c-1.4-0.1-2.6,0.9-2.8,2.2
		l-0.3,3C451.6,353.8,452.6,355.1,454,355.2z"/>
	<path class="st3" d="M460.6,352.4l-0.3,3c-0.1,0.7-0.7,1.2-1.4,1.1l-7-0.7c-0.3,0-0.6-0.2-0.8-0.5c-0.2-0.3-0.3-0.6-0.3-0.9l0.3-3
		l-1.2-0.1l-0.3,3c-0.1,0.7,0.1,1.3,0.5,1.8s1,0.8,1.7,0.9l5.2,0.6l1.8,0.2c0.1,0,0.2,0,0.3,0c1.3,0,2.3-1,2.5-2.2l0.3-3
		L460.6,352.4z"/>
</g>
<g id="blueStool-21">
	<path class="st3" d="M437.5,343.9l-1.4,2.6c-0.6,1.2-0.2,2.7,1,3.4l2.6,1.4c1.2,0.6,2.7,0.2,3.4-1l1.4-2.6c0.6-1.2,0.2-2.7-1-3.4
		l-2.6-1.4C439.6,342.2,438.1,342.6,437.5,343.9z"/>
	<path class="st3" d="M444.2,349.7l-1.4,2.6c-0.3,0.6-1.1,0.8-1.7,0.5l-6.2-3.3c-0.3-0.2-0.5-0.4-0.6-0.7c-0.1-0.3-0.1-0.7,0.1-1
		l1.4-2.6l-1.1-0.6l-1.2,2.2l-0.2,0.4c-0.3,0.6-0.4,1.3-0.2,1.9c0.2,0.6,0.6,1.2,1.2,1.5l4.8,2.6l1.3,0.7l0,0
		c0.4,0.2,0.8,0.3,1.2,0.3c0.9,0,1.8-0.5,2.2-1.3l0.7-1.3l0.7-1.4L444.2,349.7z"/>
</g>
<g id="blueStool-20">
	<path class="st3" d="M459.2,300.5c-0.2-1.4-1.5-2.3-2.9-2l-3,0.5c-1.4,0.2-2.3,1.5-2,2.9l0.5,3c0.2,1.4,1.5,2.3,2.9,2l3-0.5
		c1.4-0.2,2.3-1.5,2-2.9L459.2,300.5z"/>
	<path class="st3" d="M461.1,299.7l-0.3-1.6c-0.2-1.4-1.5-2.3-2.9-2l-6.9,1.2c-1.4,0.2-2.3,1.5-2,2.9l0.5,3l1.2-0.2l-0.5-3
		c-0.1-0.7,0.3-1.3,1-1.4l6.9-1.2c0.7-0.1,1.3,0.3,1.4,1l0.5,3l1.2-0.2L461.1,299.7z"/>
</g>
<g id="blueStool-19">
	<path class="st3" d="M441.4,313.1l2.5-1.6c1.2-0.7,1.5-2.3,0.8-3.4l-1.6-2.5c-0.7-1.2-2.3-1.5-3.4-0.8l-2.5,1.6
		c-1.2,0.7-1.5,2.3-0.8,3.4l1.6,2.5C438.7,313.4,440.2,313.8,441.4,313.1z"/>
	<path class="st3" d="M442.2,301.6c-0.7-0.2-1.3,0-1.9,0.3l-5.9,3.7c-0.6,0.4-1,0.9-1.1,1.6c-0.2,0.7,0,1.3,0.3,1.9l1.6,2.5l1.1-0.7
		l-1.6-2.5c-0.2-0.3-0.2-0.6-0.2-0.9c0.1-0.3,0.3-0.6,0.6-0.8l5.9-3.7c0.2-0.1,0.4-0.2,0.7-0.2c0.1,0,0.2,0,0.3,0
		c0.3,0.1,0.6,0.3,0.8,0.6l1.6,2.5l1.1-0.7l-0.1-0.1l-1.5-2.4C443.5,302.1,442.9,301.7,442.2,301.6z"/>
</g>
<g id="blueStool-18">
	<path class="st3" d="M297.3,239v3c0,1.4,1.1,2.5,2.5,2.5h3c1.4,0,2.5-1.1,2.5-2.5v-3c0-1.4-1.1-2.5-2.5-2.5h-3
		C298.4,236.5,297.3,237.6,297.3,239z"/>
	<path class="st3" d="M306.1,244c0,0.7-0.6,1.3-1.3,1.3h-7c-0.7,0-1.3-0.6-1.3-1.3v-3h-1.3v3c0,1.4,1.1,2.5,2.5,2.5h7
		c1.4,0,2.5-1.1,2.5-2.5v-3H306L306.1,244L306.1,244z"/>
</g>
<g id="blueStool-17">
	<path class="st3" d="M279.3,239v3c0,1.4,1.1,2.5,2.5,2.5h3c1.4,0,2.5-1.1,2.5-2.5v-3c0-1.4-1.1-2.5-2.5-2.5h-3
		C280.4,236.5,279.3,237.6,279.3,239z"/>
	<path class="st3" d="M288.1,244c0,0.7-0.6,1.3-1.3,1.3h-7c-0.7,0-1.3-0.6-1.3-1.3v-3h-1.3v3c0,1.4,1.1,2.5,2.5,2.5h7
		c1.4,0,2.5-1.1,2.5-2.5v-3H288L288.1,244L288.1,244z"/>
</g>
<g id="blueStool-16">
	<path class="st3" d="M261.3,239v3c0,1.4,1.1,2.5,2.5,2.5h3c1.4,0,2.5-1.1,2.5-2.5v-3c0-1.4-1.1-2.5-2.5-2.5h-3
		C262.4,236.5,261.3,237.6,261.3,239z"/>
	<path class="st3" d="M270.1,244c0,0.7-0.6,1.3-1.3,1.3h-7c-0.7,0-1.3-0.6-1.3-1.3v-3h-1.3v3c0,1.4,1.1,2.5,2.5,2.5h7
		c1.4,0,2.5-1.1,2.5-2.5v-3H270L270.1,244L270.1,244z"/>
</g>
<g id="blueStool-15">
	<path class="st3" d="M305.3,207v-3c0-1.4-1.1-2.5-2.5-2.5h-3c-1.4,0-2.5,1.1-2.5,2.5v3c0,1.4,1.1,2.5,2.5,2.5h3
		C304.2,209.5,305.3,208.3,305.3,207z"/>
	<path class="st3" d="M307.3,205v-3c0-1.4-1.1-2.5-2.5-2.5h-7c-1.4,0-2.5,1.1-2.5,2.5v3h1.3v-3c0-0.7,0.6-1.3,1.3-1.3h7
		c0.7,0,1.3,0.6,1.3,1.3v3H307.3z"/>
</g>
<g id="blueStool-14">
	<path class="st3" d="M287.3,207v-3c0-1.4-1.1-2.5-2.5-2.5h-3c-1.4,0-2.5,1.1-2.5,2.5v3c0,1.4,1.1,2.5,2.5,2.5h3
		C286.2,209.5,287.3,208.3,287.3,207z"/>
	<path class="st3" d="M289.3,205v-3c0-1.4-1.1-2.5-2.5-2.5h-7c-1.4,0-2.5,1.1-2.5,2.5v3h1.3v-3c0-0.7,0.6-1.3,1.3-1.3h7
		c0.7,0,1.3,0.6,1.3,1.3v3H289.3z"/>
</g>
<g id="blueStool-13">
	<path class="st3" d="M269.3,207v-3c0-1.4-1.1-2.5-2.5-2.5h-3c-1.4,0-2.5,1.1-2.5,2.5v3c0,1.4,1.1,2.5,2.5,2.5h3
		C268.2,209.5,269.3,208.3,269.3,207z"/>
	<path class="st3" d="M271.3,205v-3c0-1.4-1.1-2.5-2.5-2.5h-7c-1.4,0-2.5,1.1-2.5,2.5v3h1.3v-3c0-0.7,0.6-1.3,1.3-1.3h7
		c0.7,0,1.3,0.6,1.3,1.3v3H271.3z"/>
</g>
<g id="blueStool-12">
	<path class="st3" d="M297.3,174.5v3c0,1.4,1.1,2.5,2.5,2.5h3c1.4,0,2.5-1.1,2.5-2.5v-3c0-1.4-1.1-2.5-2.5-2.5h-3
		C298.4,172,297.3,173.1,297.3,174.5z"/>
	<path class="st3" d="M306.1,179.5c0,0.7-0.6,1.3-1.3,1.3h-7c-0.7,0-1.3-0.6-1.3-1.3v-3h-1.3v3c0,1.4,1.1,2.5,2.5,2.5h7
		c1.4,0,2.5-1.1,2.5-2.5v-3H306L306.1,179.5L306.1,179.5z"/>
</g>
<g id="blueStool-11">
	<path class="st3" d="M279.3,174.5v3c0,1.4,1.1,2.5,2.5,2.5h3c1.4,0,2.5-1.1,2.5-2.5v-3c0-1.4-1.1-2.5-2.5-2.5h-3
		C280.4,172,279.3,173.1,279.3,174.5z"/>
	<path class="st3" d="M288.1,179.5c0,0.7-0.6,1.3-1.3,1.3h-7c-0.7,0-1.3-0.6-1.3-1.3v-3h-1.3v3c0,1.4,1.1,2.5,2.5,2.5h7
		c1.4,0,2.5-1.1,2.5-2.5v-3H288L288.1,179.5L288.1,179.5z"/>
</g>
<g id="blueStool-10">
	<path class="st3" d="M261.3,174.5v3c0,1.4,1.1,2.5,2.5,2.5h3c1.4,0,2.5-1.1,2.5-2.5v-3c0-1.4-1.1-2.5-2.5-2.5h-3
		C262.4,172,261.3,173.1,261.3,174.5z"/>
	<path class="st3" d="M270.1,179.5c0,0.7-0.6,1.3-1.3,1.3h-7c-0.7,0-1.3-0.6-1.3-1.3v-3h-1.3v3c0,1.4,1.1,2.5,2.5,2.5h7
		c1.4,0,2.5-1.1,2.5-2.5v-3H270L270.1,179.5L270.1,179.5z"/>
</g>
<g id="blueStool-9">
	<path class="st3" d="M305.3,142.5v-3c0-1.4-1.1-2.5-2.5-2.5h-3c-1.4,0-2.5,1.1-2.5,2.5v3c0,1.4,1.1,2.5,2.5,2.5h3
		C304.2,145,305.3,143.8,305.3,142.5z"/>
	<path class="st3" d="M307.3,140.5v-3c0-1.4-1.1-2.5-2.5-2.5h-7c-1.4,0-2.5,1.1-2.5,2.5v3h1.3v-3c0-0.7,0.6-1.3,1.3-1.3h7
		c0.7,0,1.3,0.6,1.3,1.3v3H307.3z"/>
</g>
<g id="blueStool-8">
	<path class="st3" d="M287.3,142.5v-3c0-1.4-1.1-2.5-2.5-2.5h-3c-1.4,0-2.5,1.1-2.5,2.5v3c0,1.4,1.1,2.5,2.5,2.5h3
		C286.2,145,287.3,143.8,287.3,142.5z"/>
	<path class="st3" d="M289.3,140.5v-3c0-1.4-1.1-2.5-2.5-2.5h-7c-1.4,0-2.5,1.1-2.5,2.5v3h1.3v-3c0-0.7,0.6-1.3,1.3-1.3h7
		c0.7,0,1.3,0.6,1.3,1.3v3H289.3z"/>
</g>
<g id="blueStool-7">
	<path class="st3" d="M269.3,142.5v-3c0-1.4-1.1-2.5-2.5-2.5h-3c-1.4,0-2.5,1.1-2.5,2.5v3c0,1.4,1.1,2.5,2.5,2.5h3
		C268.2,145,269.3,143.8,269.3,142.5z"/>
	<path class="st3" d="M271.3,140.5v-3c0-1.4-1.1-2.5-2.5-2.5h-7c-1.4,0-2.5,1.1-2.5,2.5v3h1.3v-3c0-0.7,0.6-1.3,1.3-1.3h7
		c0.7,0,1.3,0.6,1.3,1.3v3H271.3z"/>
</g>
<g id="blueStool-6">
	<path class="st3" d="M125.8,387.5v3c0,1.4,1.1,2.5,2.5,2.5h3c1.4,0,2.5-1.1,2.5-2.5v-3c0-1.4-1.1-2.5-2.5-2.5h-3
		C126.9,385,125.8,386.1,125.8,387.5z"/>
	<path class="st3" d="M134.6,392.5c0,0.7-0.6,1.3-1.3,1.3h-7c-0.7,0-1.3-0.6-1.3-1.3v-3h-1.3v3c0,1.4,1.1,2.5,2.5,2.5h7
		c1.4,0,2.5-1.1,2.5-2.5v-3h-1.2v3H134.6z"/>
</g>
<g id="blueStool-5">
	<path class="st3" d="M107.8,387.5v3c0,1.4,1.1,2.5,2.5,2.5h3c1.4,0,2.5-1.1,2.5-2.5v-3c0-1.4-1.1-2.5-2.5-2.5h-3
		C108.9,385,107.8,386.1,107.8,387.5z"/>
	<path class="st3" d="M116.6,392.5c0,0.7-0.6,1.3-1.3,1.3h-7c-0.7,0-1.3-0.6-1.3-1.3v-3h-1.3v3c0,1.4,1.1,2.5,2.5,2.5h7
		c1.4,0,2.5-1.1,2.5-2.5v-3h-1.2v3H116.6z"/>
</g>
<g id="blueStool-4">
	<path class="st3" d="M89.8,387.5v3c0,1.4,1.1,2.5,2.5,2.5h3c1.4,0,2.5-1.1,2.5-2.5v-3c0-1.4-1.1-2.5-2.5-2.5h-3
		C90.9,385,89.8,386.1,89.8,387.5z"/>
	<path class="st3" d="M98.6,392.5c0,0.7-0.6,1.3-1.3,1.3h-7c-0.7,0-1.3-0.6-1.3-1.3v-3h-1.3v3c0,1.4,1.1,2.5,2.5,2.5h7
		c1.4,0,2.5-1.1,2.5-2.5v-3h-1.2v3H98.6z"/>
</g>
<g id="blueStool-3">
	<path class="st3" d="M133.8,355.5v-3c0-1.4-1.1-2.5-2.5-2.5h-3c-1.4,0-2.5,1.1-2.5,2.5v3c0,1.4,1.1,2.5,2.5,2.5h3
		C132.7,358,133.8,356.8,133.8,355.5z"/>
	<path class="st3" d="M135.8,353.5v-3c0-1.4-1.1-2.5-2.5-2.5h-7c-1.4,0-2.5,1.1-2.5,2.5v3h1.3v-3c0-0.7,0.6-1.3,1.3-1.3h7
		c0.7,0,1.3,0.6,1.3,1.3v3H135.8z"/>
</g>
<g id="blueStool-2">
	<path class="st3" d="M115.8,355.5v-3c0-1.4-1.1-2.5-2.5-2.5h-3c-1.4,0-2.5,1.1-2.5,2.5v3c0,1.4,1.1,2.5,2.5,2.5h3
		C114.7,358,115.8,356.8,115.8,355.5z"/>
	<path class="st3" d="M117.8,353.5v-3c0-1.4-1.1-2.5-2.5-2.5h-7c-1.4,0-2.5,1.1-2.5,2.5v3h1.3v-3c0-0.7,0.6-1.3,1.3-1.3h7
		c0.7,0,1.3,0.6,1.3,1.3v3H117.8z"/>
</g>
<g id="blueStool-1">
	<path class="st3" d="M97.8,355.5v-3c0-1.4-1.1-2.5-2.5-2.5h-3c-1.4,0-2.5,1.1-2.5,2.5v3c0,1.4,1.1,2.5,2.5,2.5h3
		C96.7,358,97.8,356.8,97.8,355.5z"/>
	<path class="st3" d="M99.8,353.5v-3c0-1.4-1.1-2.5-2.5-2.5h-7c-1.4,0-2.5,1.1-2.5,2.5v3h1.3v-3c0-0.7,0.6-1.3,1.3-1.3h7
		c0.7,0,1.3,0.6,1.3,1.3v3H99.8z"/>
</g>
<g id="thirtySixInchTable" transform="translate(499 628)">
	<path class="st1" d="M-349.7-323h15c0.8,0,1.5,0.7,1.5,1.5v15c0,0.8-0.7,1.5-1.5,1.5h-15c-0.8,0-1.5-0.7-1.5-1.5v-15
		C-351.2-322.4-350.5-323-349.7-323z"/>
	<path class="st2" d="M-349.7-322.8h15c0.7,0,1.3,0.6,1.3,1.3v15c0,0.7-0.6,1.3-1.3,1.3h-15c-0.7,0-1.3-0.6-1.3-1.3v-15
		C-350.9-322.2-350.4-322.8-349.7-322.8z"/>
</g>
<g id="blueChair-27">
	<path class="st3" d="M463,284.2h-1v0.1c0,2.8-2.2,5.1-5,5.1s-5-2.3-5-5.1v-0.1h-1v0.1c0,1.7,0.7,3.2,1.8,4.3
		c1.1,1.1,2.6,1.8,4.2,1.8l0,0c1.7,0,3.2-0.7,4.2-1.8c1.1-1.1,1.7-2.6,1.7-4.3C463,284.3,463,284.3,463,284.2z"/>
	<path class="st3" d="M456.9,288.4c2.2,0,3.9-1.8,3.9-4c0-0.1,0-0.1,0-0.2c-0.1-2.1-1.8-3.8-3.9-3.8s-3.8,1.7-3.9,3.8
		c0,0.1,0,0.1,0,0.2C452.9,286.6,454.7,288.4,456.9,288.4z"/>
</g>
<g id="blueChair-26">
	<path class="st3" d="M456.8,253.6c-3.3,0-6,2.7-6,6.1v0.1h1v-0.1c0-2.8,2.2-5.1,5-5.1s5,2.3,5,5.1v0.1h1v-0.1
		C462.8,256.4,460.1,253.6,456.8,253.6z"/>
	<path class="st3" d="M456.9,255.6c-2.2,0-3.9,1.8-3.9,4s1.8,4,3.9,4c2.2,0,3.9-1.8,3.9-4S459,255.6,456.9,255.6z"/>
</g>
<g id="blueChair-25">
	<path class="st3" d="M404.8,298.3h-1v0.1c0,2.8-2.2,5.1-5,5.1s-5-2.3-5-5.1v-0.1h-1v0.1c0,1.7,0.7,3.2,1.8,4.3
		c1.1,1.1,2.6,1.8,4.2,1.8l0,0c1.7,0,3.2-0.7,4.2-1.8C404.2,301.6,404.8,300,404.8,298.3L404.8,298.3z"/>
	<path class="st3" d="M398.7,302.5c2.2,0,3.9-1.8,3.9-4c0-0.1,0-0.1,0-0.2c-0.1-2.1-1.8-3.8-3.9-3.8s-3.8,1.7-3.9,3.8
		c0,0.1,0,0.1,0,0.2C394.8,300.7,396.5,302.5,398.7,302.5z"/>
</g>
<g id="blueChair-24">
	<path class="st3" d="M425.3,286.4c0-1.7-0.7-3.2-1.8-4.2c-1.1-1.1-2.6-1.7-4.3-1.7h-0.1v1h0.1c2.8,0,5.1,2.2,5.1,5s-2.3,5-5.1,5
		h-0.1v1h0.1c1.7,0,3.2-0.7,4.3-1.8C424.6,289.6,425.3,288.1,425.3,286.4C425.3,286.5,425.3,286.5,425.3,286.4z"/>
	<path class="st3" d="M419.3,290.5c2.2,0,4-1.8,4-3.9c0-2.2-1.8-3.9-4-3.9c-0.1,0-0.1,0-0.2,0c-2.1,0.1-3.8,1.8-3.8,3.9
		s1.7,3.8,3.8,3.9C419.2,290.5,419.3,290.5,419.3,290.5z"/>
</g>
<g id="blueChair-23">
	<path class="st3" d="M373.8,286.5c0-2.8,2.3-5,5.1-5h0.1v-1h-0.1c-1.7,0-3.2,0.7-4.3,1.7c-1.1,1.1-1.8,2.6-1.8,4.3l0,0
		c0,1.7,0.7,3.2,1.8,4.2c1.1,1.1,2.6,1.7,4.3,1.7h0.1v-1h-0.1C376.1,291.5,373.8,289.2,373.8,286.5z"/>
	<path class="st3" d="M379,282.4c-0.1,0-0.1,0-0.2,0c-2.2,0-4,1.8-4,3.9c0,2.2,1.8,3.9,4,3.9c0.1,0,0.1,0,0.2,0
		c2.1-0.1,3.8-1.8,3.8-3.9C382.8,284.2,381.1,282.5,379,282.4z"/>
</g>
<g id="blueChair-22">
	<path class="st3" d="M425.3,271.4c0-1.7-0.7-3.2-1.8-4.2c-1.1-1.1-2.6-1.7-4.3-1.7h-0.1v1h0.1c2.8,0,5.1,2.2,5.1,5s-2.3,5-5.1,5
		h-0.1v1h0.1c1.7,0,3.2-0.7,4.3-1.8C424.6,274.6,425.3,273.1,425.3,271.4C425.3,271.5,425.3,271.5,425.3,271.4z"/>
	<path class="st3" d="M419.3,275.5c2.2,0,4-1.8,4-3.9c0-2.2-1.8-3.9-4-3.9c-0.1,0-0.1,0-0.2,0c-2.1,0.1-3.8,1.8-3.8,3.9
		s1.7,3.8,3.8,3.9C419.2,275.5,419.3,275.5,419.3,275.5z"/>
</g>
<g id="blueChair-21">
	<path class="st3" d="M373.8,271.5c0-2.8,2.3-5,5.1-5h0.1v-1h-0.1c-1.7,0-3.2,0.7-4.3,1.7c-1.1,1.1-1.8,2.6-1.8,4.3l0,0
		c0,1.7,0.7,3.2,1.8,4.2c1.1,1.1,2.6,1.7,4.3,1.7h0.1v-1h-0.1C376.1,276.5,373.8,274.2,373.8,271.5z"/>
	<path class="st3" d="M379,267.4c-0.1,0-0.1,0-0.2,0c-2.2,0-4,1.8-4,3.9c0,2.2,1.8,3.9,4,3.9c0.1,0,0.1,0,0.2,0
		c2.1-0.1,3.8-1.8,3.8-3.9C382.8,269.2,381.1,267.5,379,267.4z"/>
</g>
<g id="blueChair-20">
	<path class="st3" d="M403.1,254.2c-1.1-1.1-2.6-1.8-4.3-1.8l0,0c-1.7,0-3.2,0.7-4.2,1.8c-1.1,1.1-1.8,2.6-1.8,4.3v0.1h1v-0.1
		c0-2.8,2.2-5.1,5-5.1s5,2.3,5,5.1v0.1h1v-0.1C404.8,256.9,404.2,255.4,403.1,254.2z"/>
	<path class="st3" d="M398.9,254.5c-2.2,0-3.9,1.8-3.9,4c0,0.1,0,0.1,0,0.2c0.1,2.1,1.8,3.8,3.9,3.8s3.8-1.7,3.9-3.8
		c0-0.1,0-0.1,0-0.2C402.9,256.2,401.1,254.5,398.9,254.5z"/>
</g>
<g id="blueChair-19">
	<path class="st3" d="M351.3,214.5c0-2.8,2.3-5,5.1-5h0.1v-1h-0.1c-1.7,0-3.2,0.7-4.3,1.7c-1.1,1.1-1.8,2.6-1.8,4.3l0,0
		c0,1.7,0.7,3.2,1.8,4.2c1.1,1.1,2.6,1.7,4.3,1.7h0.1v-1h-0.1C353.6,219.5,351.3,217.2,351.3,214.5z"/>
	<path class="st3" d="M356.5,210.4c-0.1,0-0.1,0-0.2,0c-2.2,0-4,1.8-4,3.9c0,2.2,1.8,3.9,4,3.9c0.1,0,0.1,0,0.2,0
		c2.1-0.1,3.8-1.8,3.8-3.9S358.6,210.5,356.5,210.4z"/>
</g>
<g id="blueChair-18">
	<path class="st3" d="M351.3,194.5c0-2.8,2.3-5,5.1-5h0.1v-1h-0.1c-1.7,0-3.2,0.7-4.3,1.7c-1.1,1.1-1.8,2.6-1.8,4.3l0,0
		c0,1.7,0.7,3.2,1.8,4.2c1.1,1.1,2.6,1.7,4.3,1.7h0.1v-1h-0.1C353.6,199.5,351.3,197.2,351.3,194.5z"/>
	<path class="st3" d="M356.5,190.4c-0.1,0-0.1,0-0.2,0c-2.2,0-4,1.8-4,3.9c0,2.2,1.8,3.9,4,3.9c0.1,0,0.1,0,0.2,0
		c2.1-0.1,3.8-1.8,3.8-3.9S358.6,190.5,356.5,190.4z"/>
</g>
<g id="blueChair-17">
	<path class="st3" d="M351.3,177c0-2.8,2.3-5,5.1-5h0.1v-1h-0.1c-1.7,0-3.2,0.7-4.3,1.7c-1.1,1.1-1.8,2.6-1.8,4.3l0,0
		c0,1.7,0.7,3.2,1.8,4.2c1.1,1.1,2.6,1.7,4.3,1.7h0.1v-1h-0.1C353.6,182,351.3,179.7,351.3,177z"/>
	<path class="st3" d="M356.5,172.9c-0.1,0-0.1,0-0.2,0c-2.2,0-4,1.8-4,3.9c0,2.2,1.8,3.9,4,3.9c0.1,0,0.1,0,0.2,0
		c2.1-0.1,3.8-1.8,3.8-3.9S358.6,173,356.5,172.9z"/>
</g>
<g id="blueChair-16">
	<path class="st3" d="M351.3,157c0-2.8,2.3-5,5.1-5h0.1v-1h-0.1c-1.7,0-3.2,0.7-4.3,1.7c-1.1,1.1-1.8,2.6-1.8,4.3l0,0
		c0,1.7,0.7,3.2,1.8,4.2c1.1,1.1,2.6,1.7,4.3,1.7h0.1v-1h-0.1C353.6,162,351.3,159.7,351.3,157z"/>
	<path class="st3" d="M356.5,152.9c-0.1,0-0.1,0-0.2,0c-2.2,0-4,1.8-4,3.9c0,2.2,1.8,3.9,4,3.9c0.1,0,0.1,0,0.2,0
		c2.1-0.1,3.8-1.8,3.8-3.9S358.6,153,356.5,152.9z"/>
</g>
<g id="blueChair-15">
	<path class="st3" d="M351.3,135c0-2.8,2.3-5,5.1-5h0.1v-1h-0.1c-1.7,0-3.2,0.7-4.3,1.7c-1.1,1.1-1.8,2.6-1.8,4.3l0,0
		c0,1.7,0.7,3.2,1.8,4.2c1.1,1.1,2.6,1.7,4.3,1.7h0.1v-1h-0.1C353.6,140,351.3,137.7,351.3,135z"/>
	<path class="st3" d="M356.5,130.9c-0.1,0-0.1,0-0.2,0c-2.2,0-4,1.8-4,3.9c0,2.2,1.8,3.9,4,3.9c0.1,0,0.1,0,0.2,0
		c2.1-0.1,3.8-1.8,3.8-3.9S358.6,131,356.5,130.9z"/>
</g>
<g id="blueChair-14">
	<path class="st3" d="M351.3,111c0-2.8,2.3-5,5.1-5h0.1v-1h-0.1c-1.7,0-3.2,0.7-4.3,1.7c-1.1,1.1-1.8,2.6-1.8,4.3l0,0
		c0,1.7,0.7,3.2,1.8,4.2c1.1,1.1,2.6,1.7,4.3,1.7h0.1v-1h-0.1C353.6,116,351.3,113.7,351.3,111z"/>
	<path class="st3" d="M356.5,106.9c-0.1,0-0.1,0-0.2,0c-2.2,0-4,1.8-4,3.9c0,2.2,1.8,3.9,4,3.9c0.1,0,0.1,0,0.2,0
		c2.1-0.1,3.8-1.8,3.8-3.9C360.3,108.7,358.6,107,356.5,106.9z"/>
</g>
<g id="blueChair-13">
	<path class="st3" d="M167.8,246.9c0-1.7-0.7-3.2-1.8-4.2c-1.1-1.1-2.6-1.7-4.3-1.7h-0.1v1h0.1c2.8,0,5.1,2.2,5.1,5s-2.3,5-5.1,5
		h-0.1v1h0.1c1.7,0,3.2-0.7,4.3-1.8C167.1,250.1,167.8,248.6,167.8,246.9C167.8,247,167.8,247,167.8,246.9z"/>
	<path class="st3" d="M161.8,251c2.2,0,4-1.8,4-3.9c0-2.2-1.8-3.9-4-3.9c-0.1,0-0.1,0-0.2,0c-2.1,0.1-3.8,1.8-3.8,3.9
		c0,2.1,1.7,3.8,3.8,3.9C161.7,251,161.8,251,161.8,251z"/>
</g>
<g id="blueChair-12">
	<path class="st3" d="M89.3,324.8h-1v0.1c0,2.8-2.2,5.1-5,5.1s-5-2.3-5-5.1v-0.1h-1v0.1c0,1.7,0.7,3.2,1.8,4.3
		c1.1,1.1,2.6,1.8,4.2,1.8l0,0c1.7,0,3.2-0.7,4.2-1.8C88.7,328.1,89.3,326.5,89.3,324.8L89.3,324.8z"/>
	<path class="st3" d="M83.2,329c2.2,0,3.9-1.8,3.9-4c0-0.1,0-0.1,0-0.2c-0.1-2.1-1.8-3.8-3.9-3.8s-3.8,1.7-3.9,3.8
		c0,0.1,0,0.1,0,0.2C79.3,327.2,81,329,83.2,329z"/>
</g>
<g id="blueChair-11">
	<path class="st3" d="M109.8,312.9c0-1.7-0.7-3.2-1.8-4.2c-1.1-1.1-2.6-1.7-4.3-1.7h-0.1v1h0.1c2.8,0,5.1,2.2,5.1,5s-2.3,5-5.1,5
		h-0.1v1h0.1c1.7,0,3.2-0.7,4.3-1.8C109.1,316.1,109.8,314.6,109.8,312.9C109.8,313,109.8,313,109.8,312.9z"/>
	<path class="st3" d="M103.8,317c2.2,0,4-1.8,4-3.9c0-2.2-1.8-3.9-4-3.9c-0.1,0-0.1,0-0.2,0c-2.1,0.1-3.8,1.8-3.8,3.9
		s1.7,3.8,3.8,3.9C103.7,317,103.8,317,103.8,317z"/>
</g>
<g id="blueChair-10">
	<path class="st3" d="M58.3,313c0-2.8,2.3-5,5.1-5h0.1v-1h-0.1c-1.7,0-3.2,0.7-4.3,1.7c-1.1,1.1-1.8,2.6-1.8,4.3l0,0
		c0,1.7,0.7,3.2,1.8,4.2c1.1,1.1,2.6,1.7,4.3,1.7h0.1v-1h-0.1C60.6,318,58.3,315.7,58.3,313z"/>
	<path class="st3" d="M63.5,308.9c-0.1,0-0.1,0-0.2,0c-2.2,0-4,1.8-4,3.9c0,2.2,1.8,3.9,4,3.9c0.1,0,0.1,0,0.2,0
		c2.1-0.1,3.8-1.8,3.8-3.9C67.3,310.7,65.6,309,63.5,308.9z"/>
</g>
<g id="blueChair-9">
	<path class="st3" d="M109.8,297.9c0-1.7-0.7-3.2-1.8-4.2c-1.1-1.1-2.6-1.7-4.3-1.7h-0.1v1h0.1c2.8,0,5.1,2.2,5.1,5s-2.3,5-5.1,5
		h-0.1v1h0.1c1.7,0,3.2-0.7,4.3-1.8C109.1,301.1,109.8,299.6,109.8,297.9C109.8,298,109.8,298,109.8,297.9z"/>
	<path class="st3" d="M103.8,302c2.2,0,4-1.8,4-3.9c0-2.2-1.8-3.9-4-3.9c-0.1,0-0.1,0-0.2,0c-2.1,0.1-3.8,1.8-3.8,3.9
		s1.7,3.8,3.8,3.9C103.7,302,103.8,302,103.8,302z"/>
</g>
<g id="blueChair-8">
	<path class="st3" d="M58.3,298c0-2.8,2.3-5,5.1-5h0.1v-1h-0.1c-1.7,0-3.2,0.7-4.3,1.7c-1.1,1.1-1.8,2.6-1.8,4.3l0,0
		c0,1.7,0.7,3.2,1.8,4.2c1.1,1.1,2.6,1.7,4.3,1.7h0.1v-1h-0.1C60.6,303,58.3,300.7,58.3,298z"/>
	<path class="st3" d="M63.5,293.9c-0.1,0-0.1,0-0.2,0c-2.2,0-4,1.8-4,3.9c0,2.2,1.8,3.9,4,3.9c0.1,0,0.1,0,0.2,0
		c2.1-0.1,3.8-1.8,3.8-3.9C67.3,295.7,65.6,294,63.5,293.9z"/>
</g>
<g id="blueChair-7">
	<path class="st3" d="M87.6,280.7c-1.1-1.1-2.6-1.8-4.3-1.8l0,0c-1.7,0-3.2,0.7-4.2,1.8c-1.1,1.1-1.8,2.6-1.8,4.3v0.1h1V285
		c0-2.8,2.2-5.1,5-5.1s5,2.3,5,5.1v0.1h1V285C89.3,283.4,88.7,281.9,87.6,280.7z"/>
	<path class="st3" d="M83.4,281c-2.2,0-3.9,1.8-3.9,4c0,0.1,0,0.1,0,0.2c0.1,2.1,1.8,3.8,3.9,3.8s3.8-1.7,3.9-3.8c0-0.1,0-0.1,0-0.2
		C87.4,282.7,85.6,281,83.4,281z"/>
</g>
<g id="blueChair-6">
	<path class="st3" d="M89.3,245.3h-1v0.1c0,2.8-2.2,5.1-5,5.1s-5-2.3-5-5.1v-0.1h-1v0.1c0,1.7,0.7,3.2,1.8,4.3
		c1.1,1.1,2.6,1.8,4.2,1.8l0,0c1.7,0,3.2-0.7,4.2-1.8C88.7,248.6,89.3,247,89.3,245.3L89.3,245.3z"/>
	<path class="st3" d="M83.2,249.5c2.2,0,3.9-1.8,3.9-4c0-0.1,0-0.1,0-0.2c-0.1-2.1-1.8-3.8-3.9-3.8s-3.8,1.7-3.9,3.8
		c0,0.1,0,0.1,0,0.2C79.3,247.7,81,249.5,83.2,249.5z"/>
</g>
<g id="blueChair-5">
	<path class="st3" d="M109.8,233.4c0-1.7-0.7-3.2-1.8-4.2c-1.1-1.1-2.6-1.7-4.3-1.7h-0.1v1h0.1c2.8,0,5.1,2.2,5.1,5s-2.3,5-5.1,5
		h-0.1v1h0.1c1.7,0,3.2-0.7,4.3-1.8C109.1,236.6,109.8,235.1,109.8,233.4C109.8,233.5,109.8,233.5,109.8,233.4z"/>
	<path class="st3" d="M103.8,237.5c2.2,0,4-1.8,4-3.9c0-2.2-1.8-3.9-4-3.9c-0.1,0-0.1,0-0.2,0c-2.1,0.1-3.8,1.8-3.8,3.9
		c0,2.1,1.7,3.8,3.8,3.9C103.7,237.5,103.8,237.5,103.8,237.5z"/>
</g>
<g id="blueChair-4">
	<path class="st3" d="M58.3,233.5c0-2.8,2.3-5,5.1-5h0.1v-1h-0.1c-1.7,0-3.2,0.7-4.3,1.7c-1.1,1.1-1.8,2.6-1.8,4.3l0,0
		c0,1.7,0.7,3.2,1.8,4.2c1.1,1.1,2.6,1.7,4.3,1.7h0.1v-1h-0.1C60.6,238.5,58.3,236.2,58.3,233.5z"/>
	<path class="st3" d="M63.5,229.4c-0.1,0-0.1,0-0.2,0c-2.2,0-4,1.8-4,3.9c0,2.2,1.8,3.9,4,3.9c0.1,0,0.1,0,0.2,0
		c2.1-0.1,3.8-1.8,3.8-3.9S65.6,229.5,63.5,229.4z"/>
</g>
<g id="blueChair-3">
	<path class="st3" d="M109.8,218.4c0-1.7-0.7-3.2-1.8-4.2c-1.1-1.1-2.6-1.7-4.3-1.7h-0.1v1h0.1c2.8,0,5.1,2.2,5.1,5s-2.3,5-5.1,5
		h-0.1v1h0.1c1.7,0,3.2-0.7,4.3-1.8C109.1,221.6,109.8,220.1,109.8,218.4C109.8,218.5,109.8,218.5,109.8,218.4z"/>
	<path class="st3" d="M103.8,222.5c2.2,0,4-1.8,4-3.9c0-2.2-1.8-3.9-4-3.9c-0.1,0-0.1,0-0.2,0c-2.1,0.1-3.8,1.8-3.8,3.9
		c0,2.1,1.7,3.8,3.8,3.9C103.7,222.5,103.8,222.5,103.8,222.5z"/>
</g>
<g id="blueChair-2">
	<path class="st3" d="M58.3,218.5c0-2.8,2.3-5,5.1-5h0.1v-1h-0.1c-1.7,0-3.2,0.7-4.3,1.7c-1.1,1.1-1.8,2.6-1.8,4.3l0,0
		c0,1.7,0.7,3.2,1.8,4.2c1.1,1.1,2.6,1.7,4.3,1.7h0.1v-1h-0.1C60.6,223.5,58.3,221.2,58.3,218.5z"/>
	<path class="st3" d="M63.5,214.4c-0.1,0-0.1,0-0.2,0c-2.2,0-4,1.8-4,3.9c0,2.2,1.8,3.9,4,3.9c0.1,0,0.1,0,0.2,0
		c2.1-0.1,3.8-1.8,3.8-3.9S65.6,214.5,63.5,214.4z"/>
</g>
<g id="blueChair-1">
	<path class="st3" d="M87.6,201.2c-1.1-1.1-2.6-1.8-4.3-1.8l0,0c-1.7,0-3.2,0.7-4.2,1.8c-1.1,1.1-1.8,2.6-1.8,4.3v0.1h1v-0.1
		c0-2.8,2.2-5.1,5-5.1s5,2.3,5,5.1v0.1h1v-0.1C89.3,203.9,88.7,202.4,87.6,201.2z"/>
	<path class="st3" d="M83.4,201.5c-2.2,0-3.9,1.8-3.9,4c0,0.1,0,0.1,0,0.2c0.1,2.1,1.8,3.8,3.9,3.8s3.8-1.7,3.9-3.8
		c0-0.1,0-0.1,0-0.2C87.4,203.2,85.6,201.5,83.4,201.5z"/>
</g>
<circle id="greenLowChair-6" class="st4" cx="208.1" cy="177.5" r="4.5"/>
<circle id="greenLowChair-5" class="st4" cx="219.6" cy="154.5" r="4.5"/>
<circle id="greenLowChair-4" class="st4" cx="193.6" cy="157.5" r="4.5"/>
<circle id="greenLowChair-3" class="st4" cx="32.1" cy="310" r="4.5"/>
<circle id="greenLowChair-2" class="st4" cx="43.6" cy="287" r="4.5"/>
<circle id="greenLowChair-1" class="st4" cx="17.6" cy="290" r="4.5"/>
<circle id="blueLowChair-1" class="st3" cx="182.6" cy="271.5" r="4.5"/>
<g id="blackChair-50">
	<g class="st5">
		<polygon points="133.6,128 133.6,128 143.1,128 143.1,128 		"/>
	</g>
	<g class="st5">
		<rect x="135.1" y="129.5" width="6.5" height="4.5"/>
	</g>
	<rect x="133.6" y="136.5" width="9.5" height="1"/>
	<path d="M133.6,135.5L133.6,135.5h9.5l0,0V128h-9.5V135.5z M135.1,129.5h6.5v4.5h-6.5V129.5z"/>
</g>
<g id="blackChair-49">
	<g class="st5">
		<polygon points="122.6,128 122.6,128 132.1,128 132.1,128 		"/>
	</g>
	<g class="st5">
		<rect x="124.1" y="129.5" width="6.5" height="4.5"/>
	</g>
	<rect x="122.6" y="136.5" width="9.5" height="1"/>
	<path d="M122.6,135.5L122.6,135.5h9.5l0,0V128h-9.5C122.6,128,122.6,135.5,122.6,135.5z M124.1,129.5h6.5v4.5h-6.5
		C124.1,134,124.1,129.5,124.1,129.5z"/>
</g>
<g id="blackChair-48">
	<g class="st5">
		<polygon points="111.6,128 111.6,128 121.1,128 121.1,128 		"/>
	</g>
	<g class="st5">
		<rect x="113.1" y="129.5" width="6.5" height="4.5"/>
	</g>
	<rect x="111.6" y="136.5" width="9.5" height="1"/>
	<path d="M111.6,135.5L111.6,135.5h9.5l0,0V128h-9.5V135.5z M113.1,129.5h6.5v4.5h-6.5V129.5z"/>
</g>
<g id="blackChair-47">
	<g class="st5">
		<rect x="102.1" y="129.5" width="6.5" height="4.5"/>
	</g>
	<g class="st5">
		<polygon points="100.6,128 100.6,128 110.1,128 110.1,128 		"/>
	</g>
	<rect x="100.6" y="136.5" width="9.5" height="1"/>
	<path d="M100.6,135.5L100.6,135.5h9.5l0,0V128h-9.5V135.5z M102.1,129.5h6.5v4.5h-6.5V129.5z"/>
</g>
<g id="blackChair-46">
	<g class="st5">
		<rect x="91.1" y="129.5" width="6.5" height="4.5"/>
	</g>
	<g class="st5">
		<polygon points="89.6,128 89.6,128 99.1,128 99.1,128 		"/>
	</g>
	<rect x="89.6" y="136.5" width="9.5" height="1"/>
	<path d="M89.6,135.5L89.6,135.5h9.5l0,0V128h-9.5V135.5z M91.1,129.5h6.5v4.5h-6.5V129.5z"/>
</g>
<g id="blackChair-45">
	<g class="st5">
		<rect x="135.1" y="113" width="6.5" height="4.5"/>
	</g>
	<g class="st5">
		<polygon points="133.6,111.5 133.6,111.5 143.1,111.5 143.1,111.5 		"/>
	</g>
	<rect x="133.6" y="120" width="9.5" height="1"/>
	<path d="M133.6,119L133.6,119h9.5l0,0v-7.5h-9.5V119z M135.1,113h6.5v4.5h-6.5V113z"/>
</g>
<g id="blackChair-44">
	<g class="st5">
		<polygon points="122.6,111.5 122.6,111.5 132.1,111.5 132.1,111.5 		"/>
	</g>
	<g class="st5">
		<rect x="124.1" y="113" width="6.5" height="4.5"/>
	</g>
	<rect x="122.6" y="120" width="9.5" height="1"/>
	<path d="M122.6,119L122.6,119h9.5l0,0v-7.5h-9.5C122.6,111.5,122.6,119,122.6,119z M124.1,113h6.5v4.5h-6.5
		C124.1,117.5,124.1,113,124.1,113z"/>
</g>
<g id="blackChair-43">
	<g class="st5">
		<rect x="113.1" y="113" width="6.5" height="4.5"/>
	</g>
	<g class="st5">
		<polygon points="111.6,111.5 111.6,111.5 121.1,111.5 121.1,111.5 		"/>
	</g>
	<rect x="111.6" y="120" width="9.5" height="1"/>
	<path d="M111.6,119L111.6,119h9.5l0,0v-7.5h-9.5V119z M113.1,113h6.5v4.5h-6.5V113z"/>
</g>
<g id="blackChair-42">
	<g class="st5">
		<polygon points="100.6,111.5 100.6,111.5 110.1,111.5 110.1,111.5 		"/>
	</g>
	<g class="st5">
		<rect x="102.1" y="113" width="6.5" height="4.5"/>
	</g>
	<rect x="100.6" y="120" width="9.5" height="1"/>
	<path d="M100.6,119L100.6,119h9.5l0,0v-7.5h-9.5V119z M102.1,113h6.5v4.5h-6.5V113z"/>
</g>
<g id="blackChair-41">
	<g class="st5">
		<rect x="91.1" y="113" width="6.5" height="4.5"/>
	</g>
	<g class="st5">
		<polygon points="89.6,111.5 89.6,111.5 99.1,111.5 99.1,111.5 		"/>
	</g>
	<rect x="89.6" y="120" width="9.5" height="1"/>
	<path d="M89.6,119L89.6,119h9.5l0,0v-7.5h-9.5V119z M91.1,113h6.5v4.5h-6.5V113z"/>
</g>
<g id="blackChair-40">
	<g class="st5">
		<polygon points="133.6,95 133.6,95 143.1,95 143.1,95 		"/>
	</g>
	<g class="st5">
		<rect x="135.1" y="96.5" width="6.5" height="4.5"/>
	</g>
	<rect x="133.6" y="103.5" width="9.5" height="1"/>
	<path d="M133.6,102.5L133.6,102.5h9.5l0,0V95h-9.5V102.5z M135.1,96.5h6.5v4.5h-6.5V96.5z"/>
</g>
<g id="blackChair-39">
	<g class="st5">
		<rect x="124.1" y="96.5" width="6.5" height="4.5"/>
	</g>
	<g class="st5">
		<polygon points="122.6,95 122.6,95 132.1,95 132.1,95 		"/>
	</g>
	<rect x="122.6" y="103.5" width="9.5" height="1"/>
	<path d="M122.6,102.5L122.6,102.5h9.5l0,0V95h-9.5C122.6,95,122.6,102.5,122.6,102.5z M124.1,96.5h6.5v4.5h-6.5
		C124.1,101,124.1,96.5,124.1,96.5z"/>
</g>
<g id="blackChair-38">
	<g class="st5">
		<rect x="113.1" y="96.5" width="6.5" height="4.5"/>
	</g>
	<g class="st5">
		<polygon points="111.6,95 111.6,95 121.1,95 121.1,95 		"/>
	</g>
	<rect x="111.6" y="103.5" width="9.5" height="1"/>
	<path d="M111.6,102.5L111.6,102.5h9.5l0,0V95h-9.5V102.5z M113.1,96.5h6.5v4.5h-6.5V96.5z"/>
</g>
<g id="blackChair-37">
	<g class="st5">
		<rect x="102.1" y="96.5" width="6.5" height="4.5"/>
	</g>
	<g class="st5">
		<polygon points="100.6,95 100.6,95 110.1,95 110.1,95 		"/>
	</g>
	<rect x="100.6" y="103.5" width="9.5" height="1"/>
	<path d="M100.6,102.5L100.6,102.5h9.5l0,0V95h-9.5V102.5z M102.1,96.5h6.5v4.5h-6.5V96.5z"/>
</g>
<g id="blackChair-36">
	<g class="st5">
		<polygon points="89.6,95 89.6,95 99.1,95 99.1,95 		"/>
	</g>
	<g class="st5">
		<rect x="91.1" y="96.5" width="6.5" height="4.5"/>
	</g>
	<rect x="89.6" y="103.5" width="9.5" height="1"/>
	<path d="M89.6,102.5L89.6,102.5h9.5l0,0V95h-9.5V102.5z M91.1,96.5h6.5v4.5h-6.5V96.5z"/>
</g>
<g id="blackChair-35">
	<g class="st5">
		<rect x="134.6" y="80" width="6.5" height="4.5"/>
	</g>
	<g class="st5">
		<polygon points="133.1,78.5 133.1,78.5 142.6,78.5 142.6,78.5 		"/>
	</g>
	<rect x="133.1" y="87" width="9.5" height="1"/>
	<path d="M133.1,86L133.1,86h9.5l0,0v-7.5h-9.5V86z M134.6,80h6.5v4.5h-6.5V80z"/>
</g>
<g id="blackChair-34">
	<g class="st5">
		<rect x="123.6" y="80" width="6.5" height="4.5"/>
	</g>
	<g class="st5">
		<polygon points="122.1,78.5 122.1,78.5 131.6,78.5 131.6,78.5 		"/>
	</g>
	<rect x="122.1" y="87" width="9.5" height="1"/>
	<path d="M122.1,86L122.1,86h9.5l0,0v-7.5h-9.5C122.1,78.5,122.1,86,122.1,86z M123.6,80h6.5v4.5h-6.5C123.6,84.5,123.6,80,123.6,80
		z"/>
</g>
<g id="blackChair-33">
	<g class="st5">
		<polygon points="111.1,78.5 111.1,78.5 120.6,78.5 120.6,78.5 		"/>
	</g>
	<g class="st5">
		<rect x="112.6" y="80" width="6.5" height="4.5"/>
	</g>
	<rect x="111.1" y="87" width="9.5" height="1"/>
	<path d="M111.1,86L111.1,86h9.5l0,0v-7.5h-9.5V86z M112.6,80h6.5v4.5h-6.5V80z"/>
</g>
<g id="blackChair-32">
	<g class="st5">
		<rect x="101.6" y="80" width="6.5" height="4.5"/>
	</g>
	<g class="st5">
		<polygon points="100.1,78.5 100.1,78.5 109.6,78.5 109.6,78.5 		"/>
	</g>
	<rect x="100.1" y="87" width="9.5" height="1"/>
	<path d="M100.1,86L100.1,86h9.5l0,0v-7.5h-9.5V86z M101.6,80h6.5v4.5h-6.5V80z"/>
</g>
<g id="blackChair-31">
	<g class="st5">
		<polygon points="89.1,78.5 89.1,78.5 98.6,78.5 98.6,78.5 		"/>
	</g>
	<g class="st5">
		<rect x="90.6" y="80" width="6.5" height="4.5"/>
	</g>
	<rect x="89.1" y="87" width="9.5" height="1"/>
	<path d="M89.1,86L89.1,86h9.5l0,0v-7.5h-9.5V86z M90.6,80h6.5v4.5h-6.5V80z"/>
</g>
<g id="blackChair-30">
	<g class="st5">
		<rect x="134.6" y="63.5" width="6.5" height="4.5"/>
	</g>
	<g class="st5">
		<polygon points="133.1,62 133.1,62 142.6,62 142.6,62 		"/>
	</g>
	<rect x="133.1" y="70.5" width="9.5" height="1"/>
	<path d="M133.1,69.5L133.1,69.5h9.5l0,0V62h-9.5V69.5z M134.6,63.5h6.5V68h-6.5V63.5z"/>
</g>
<g id="blackChair-29">
	<g class="st5">
		<polygon points="122.1,62 122.1,62 131.6,62 131.6,62 		"/>
	</g>
	<g class="st5">
		<rect x="123.6" y="63.5" width="6.5" height="4.5"/>
	</g>
	<rect x="122.1" y="70.5" width="9.5" height="1"/>
	<path d="M122.1,69.5L122.1,69.5h9.5l0,0V62h-9.5C122.1,62,122.1,69.5,122.1,69.5z M123.6,63.5h6.5V68h-6.5
		C123.6,68,123.6,63.5,123.6,63.5z"/>
</g>
<g id="blackChair-28">
	<g class="st5">
		<rect x="112.6" y="63.5" width="6.5" height="4.5"/>
	</g>
	<g class="st5">
		<polygon points="111.1,62 111.1,62 120.6,62 120.6,62 		"/>
	</g>
	<rect x="111.1" y="70.5" width="9.5" height="1"/>
	<path d="M111.1,69.5L111.1,69.5h9.5l0,0V62h-9.5V69.5z M112.6,63.5h6.5V68h-6.5V63.5z"/>
</g>
<g id="blackChair-27">
	<g class="st5">
		<polygon points="100.1,62 100.1,62 109.6,62 109.6,62 		"/>
	</g>
	<g class="st5">
		<rect x="101.6" y="63.5" width="6.5" height="4.5"/>
	</g>
	<rect x="100.1" y="70.5" width="9.5" height="1"/>
	<path d="M100.1,69.5L100.1,69.5h9.5l0,0V62h-9.5V69.5z M101.6,63.5h6.5V68h-6.5V63.5z"/>
</g>
<g id="blackChair-26">
	<g class="st5">
		<rect x="90.6" y="63.5" width="6.5" height="4.5"/>
	</g>
	<rect x="89.1" y="70.5" width="9.5" height="1"/>
	<path d="M89.1,62v7.5h9.5V62H89.1z M97.1,68h-6.5v-4.5h6.5V68z"/>
</g>
<g id="blackChair-25">
	<g class="st5">
		<rect x="62.1" y="129.5" width="6.5" height="4.5"/>
	</g>
	<rect x="60.6" y="136.5" width="9.5" height="1"/>
	<path d="M60.6,128v7.5h9.5V128H60.6z M68.6,134h-6.5v-4.5h6.5V134z"/>
</g>
<g id="blackChair-24">
	<g class="st5">
		<polygon points="49.6,128 49.6,128 59.1,128 59.1,128 		"/>
	</g>
	<g class="st5">
		<rect x="51.1" y="129.5" width="6.5" height="4.5"/>
	</g>
	<rect x="49.6" y="136.5" width="9.5" height="1"/>
	<path d="M49.6,135.5L49.6,135.5h9.5l0,0V128h-9.5V135.5z M51.1,129.5h6.5v4.5h-6.5V129.5z"/>
</g>
<g id="blackChair-23">
	<g class="st5">
		<rect x="40.1" y="129.5" width="6.5" height="4.5"/>
	</g>
	<g class="st5">
		<polygon points="38.6,128 38.6,128 48.1,128 48.1,128 		"/>
	</g>
	<rect x="38.6" y="136.5" width="9.5" height="1"/>
	<path d="M38.6,135.5L38.6,135.5h9.5l0,0V128h-9.5V135.5z M40.1,129.5h6.5v4.5h-6.5V129.5z"/>
</g>
<g id="blackChair-22">
	<g class="st5">
		<rect x="29.1" y="129.5" width="6.5" height="4.5"/>
	</g>
	<g class="st5">
		<polygon points="27.6,128 27.6,128 37.1,128 37.1,128 		"/>
	</g>
	<rect x="27.6" y="136.5" width="9.5" height="1"/>
	<path d="M27.6,135.5L27.6,135.5h9.5l0,0V128h-9.5C27.6,128,27.6,135.5,27.6,135.5z M29.1,129.5h6.5v4.5h-6.5
		C29.1,134,29.1,129.5,29.1,129.5z"/>
</g>
<g id="blackChair-21">
	<g class="st5">
		<polygon points="16.6,128 16.6,128 26.1,128 26.1,128 		"/>
	</g>
	<g class="st5">
		<rect x="18.1" y="129.5" width="6.5" height="4.5"/>
	</g>
	<rect x="16.6" y="136.5" width="9.5" height="1"/>
	<path d="M16.6,135.5L16.6,135.5h9.5l0,0V128h-9.5V135.5z M18.1,129.5h6.5v4.5h-6.5V129.5z"/>
</g>
<g id="blackChair-20">
	<g class="st5">
		<rect x="62.1" y="113" width="6.5" height="4.5"/>
	</g>
	<g class="st5">
		<polygon points="60.6,111.5 60.6,111.5 70.1,111.5 70.1,111.5 		"/>
	</g>
	<rect x="60.6" y="120" width="9.5" height="1"/>
	<path d="M60.6,119L60.6,119h9.5l0,0v-7.5h-9.5V119z M62.1,113h6.5v4.5h-6.5V113z"/>
</g>
<g id="blackChair-19">
	<g class="st5">
		<rect x="51.1" y="113" width="6.5" height="4.5"/>
	</g>
	<g class="st5">
		<polygon points="49.6,111.5 49.6,111.5 59.1,111.5 59.1,111.5 		"/>
	</g>
	<rect x="49.6" y="120" width="9.5" height="1"/>
	<path d="M49.6,119L49.6,119h9.5l0,0v-7.5h-9.5V119z M51.1,113h6.5v4.5h-6.5V113z"/>
</g>
<g id="blackChair-18">
	<g class="st5">
		<rect x="40.1" y="113" width="6.5" height="4.5"/>
	</g>
	<g class="st5">
		<polygon points="38.6,111.5 38.6,111.5 48.1,111.5 48.1,111.5 		"/>
	</g>
	<rect x="38.6" y="120" width="9.5" height="1"/>
	<path d="M38.6,119L38.6,119h9.5l0,0v-7.5h-9.5V119z M40.1,113h6.5v4.5h-6.5V113z"/>
</g>
<g id="blackChair-17">
	<g class="st5">
		<polygon points="27.6,111.5 27.6,111.5 37.1,111.5 37.1,111.5 		"/>
	</g>
	<g class="st5">
		<rect x="29.1" y="113" width="6.5" height="4.5"/>
	</g>
	<rect x="27.6" y="120" width="9.5" height="1"/>
	<path d="M27.6,119L27.6,119h9.5l0,0v-7.5h-9.5C27.6,111.5,27.6,119,27.6,119z M29.1,113h6.5v4.5h-6.5C29.1,117.5,29.1,113,29.1,113
		z"/>
</g>
<g id="blackChair-16">
	<g class="st5">
		<rect x="18.1" y="113" width="6.5" height="4.5"/>
	</g>
	<g class="st5">
		<polygon points="16.6,111.5 16.6,111.5 26.1,111.5 26.1,111.5 		"/>
	</g>
	<rect x="16.6" y="120" width="9.5" height="1"/>
	<path d="M16.6,119L16.6,119h9.5l0,0v-7.5h-9.5V119z M18.1,113h6.5v4.5h-6.5V113z"/>
</g>
<g id="blackChair-15">
	<g class="st5">
		<polygon points="60.6,95 60.6,95 70.1,95 70.1,95 		"/>
	</g>
	<g class="st5">
		<rect x="62.1" y="96.5" width="6.5" height="4.5"/>
	</g>
	<rect x="60.6" y="103.5" width="9.5" height="1"/>
	<path d="M60.6,102.5L60.6,102.5h9.5l0,0V95h-9.5V102.5z M62.1,96.5h6.5v4.5h-6.5V96.5z"/>
</g>
<g id="blackChair-14">
	<g class="st5">
		<polygon points="49.6,95 49.6,95 59.1,95 59.1,95 		"/>
	</g>
	<g class="st5">
		<rect x="51.1" y="96.5" width="6.5" height="4.5"/>
	</g>
	<rect x="49.6" y="103.5" width="9.5" height="1"/>
	<path d="M49.6,102.5L49.6,102.5h9.5l0,0V95h-9.5V102.5z M51.1,96.5h6.5v4.5h-6.5V96.5z"/>
</g>
<g id="blackChair-13">
	<g class="st5">
		<polygon points="38.6,95 38.6,95 48.1,95 48.1,95 		"/>
	</g>
	<g class="st5">
		<rect x="40.1" y="96.5" width="6.5" height="4.5"/>
	</g>
	<rect x="38.6" y="103.5" width="9.5" height="1"/>
	<path d="M38.6,102.5L38.6,102.5h9.5l0,0V95h-9.5V102.5z M40.1,96.5h6.5v4.5h-6.5V96.5z"/>
</g>
<g id="blackChair-12">
	<g class="st5">
		<polygon points="27.6,95 27.6,95 37.1,95 37.1,95 		"/>
	</g>
	<g class="st5">
		<rect x="29.1" y="96.5" width="6.5" height="4.5"/>
	</g>
	<rect x="27.6" y="103.5" width="9.5" height="1"/>
	<path d="M27.6,102.5L27.6,102.5h9.5l0,0V95h-9.5C27.6,95,27.6,102.5,27.6,102.5z M29.1,96.5h6.5v4.5h-6.5
		C29.1,101,29.1,96.5,29.1,96.5z"/>
</g>
<g id="blackChair-11">
	<g class="st5">
		<rect x="18.1" y="96.5" width="6.5" height="4.5"/>
	</g>
	<g class="st5">
		<polygon points="16.6,95 16.6,95 26.1,95 26.1,95 		"/>
	</g>
	<rect x="16.6" y="103.5" width="9.5" height="1"/>
	<path d="M16.6,102.5L16.6,102.5h9.5l0,0V95h-9.5V102.5z M18.1,96.5h6.5v4.5h-6.5V96.5z"/>
</g>
<g id="blackChair-10">
	<g class="st5">
		<rect x="61.6" y="80" width="6.5" height="4.5"/>
	</g>
	<g class="st5">
		<polygon points="60.1,78.5 60.1,78.5 69.6,78.5 69.6,78.5 		"/>
	</g>
	<rect x="60.1" y="87" width="9.5" height="1"/>
	<path d="M60.1,86L60.1,86h9.5l0,0v-7.5h-9.5V86z M61.6,80h6.5v4.5h-6.5V80z"/>
</g>
<g id="blackChair-9">
	<g class="st5">
		<polygon points="49.1,78.5 49.1,78.5 58.6,78.5 58.6,78.5 		"/>
	</g>
	<g class="st5">
		<rect x="50.6" y="80" width="6.5" height="4.5"/>
	</g>
	<rect x="49.1" y="87" width="9.5" height="1"/>
	<path d="M49.1,86L49.1,86h9.5l0,0v-7.5h-9.5V86z M50.6,80h6.5v4.5h-6.5V80z"/>
</g>
<g id="blackChair-8">
	<g class="st5">
		<rect x="39.6" y="80" width="6.5" height="4.5"/>
	</g>
	<g class="st5">
		<polygon points="38.1,78.5 38.1,78.5 47.6,78.5 47.6,78.5 		"/>
	</g>
	<rect x="38.1" y="87" width="9.5" height="1"/>
	<path d="M38.1,86L38.1,86h9.5l0,0v-7.5h-9.5V86z M39.6,80h6.5v4.5h-6.5V80z"/>
</g>
<g id="blackChair-7">
	<g class="st5">
		<polygon points="27.1,78.5 27.1,78.5 36.6,78.5 36.6,78.5 		"/>
	</g>
	<g class="st5">
		<rect x="28.6" y="80" width="6.5" height="4.5"/>
	</g>
	<rect x="27.1" y="87" width="9.5" height="1"/>
	<path d="M27.1,86L27.1,86h9.5l0,0v-7.5h-9.5C27.1,78.5,27.1,86,27.1,86z M28.6,80h6.5v4.5h-6.5C28.6,84.5,28.6,80,28.6,80z"/>
</g>
<g id="blackChair-6">
	<g class="st5">
		<rect x="17.6" y="80" width="6.5" height="4.5"/>
	</g>
	<g class="st5">
		<polygon points="16.1,78.5 16.1,78.5 25.6,78.5 25.6,78.5 		"/>
	</g>
	<rect x="16.1" y="87" width="9.5" height="1"/>
	<path d="M16.1,86L16.1,86h9.5l0,0v-7.5h-9.5V86z M17.6,80h6.5v4.5h-6.5V80z"/>
</g>
<g id="blackChair-5">
	<g class="st5">
		<polygon points="60.1,62 60.1,62 69.6,62 69.6,62 		"/>
	</g>
	<g class="st5">
		<rect x="61.6" y="63.5" width="6.5" height="4.5"/>
	</g>
	<rect x="60.1" y="70.5" width="9.5" height="1"/>
	<path d="M60.1,69.5L60.1,69.5h9.5l0,0V62h-9.5V69.5z M61.6,63.5h6.5V68h-6.5V63.5z"/>
</g>
<g id="blackChair-4">
	<g class="st5">
		<rect x="50.6" y="63.5" width="6.5" height="4.5"/>
	</g>
	<g class="st5">
		<polygon points="49.1,62 49.1,62 58.6,62 58.6,62 		"/>
	</g>
	<rect x="49.1" y="70.5" width="9.5" height="1"/>
	<path d="M49.1,69.5L49.1,69.5h9.5l0,0V62h-9.5V69.5z M50.6,63.5h6.5V68h-6.5V63.5z"/>
</g>
<g id="blackChair-3">
	<g class="st5">
		<rect x="39.6" y="63.5" width="6.5" height="4.5"/>
	</g>
	<g class="st5">
		<polygon points="38.1,62 38.1,62 47.6,62 47.6,62 		"/>
	</g>
	<rect x="38.1" y="70.5" width="9.5" height="1"/>
	<path d="M38.1,69.5L38.1,69.5h9.5l0,0V62h-9.5V69.5z M39.6,63.5h6.5V68h-6.5V63.5z"/>
</g>
<g id="blackChair-2">
	<g class="st5">
		<polygon points="27.1,62 27.1,62 36.6,62 36.6,62 		"/>
	</g>
	<g class="st5">
		<rect x="28.6" y="63.5" width="6.5" height="4.5"/>
	</g>
	<rect x="27.1" y="70.5" width="9.5" height="1"/>
	<path d="M27.1,69.5L27.1,69.5h9.5l0,0V62h-9.5C27.1,62,27.1,69.5,27.1,69.5z M28.6,63.5h6.5V68h-6.5C28.6,68,28.6,63.5,28.6,63.5z"
		/>
</g>
<g id="blackChair-1">
	<g class="st5">
		<rect x="17.6" y="63.5" width="6.5" height="4.5"/>
	</g>
	<g class="st5">
		<polygon points="16.1,62 16.1,62 25.6,62 25.6,62 		"/>
	</g>
	<rect x="16.1" y="70.5" width="9.5" height="1"/>
	<path d="M16.1,69.5L16.1,69.5h9.5l0,0V62h-9.5V69.5z M17.6,63.5h6.5V68h-6.5V63.5z"/>
</g>
<circle id="circleCornerTable-2" class="st6" cx="100.3" cy="425.8" r="9"/>
<circle id="circleCornerTable-1" class="st6" cx="55.3" cy="412.6" r="9"/>
<circle id="thirtySixInchLowTable-1" class="st7" cx="207.8" cy="162.8" r="9"/>
<circle id="thirtySixInchLowTable-2" class="st7" cx="31.8" cy="295.3" r="9"/>
<circle id="thirtySixInchLowTable-3" class="st7" cx="78.4" cy="21.8" r="9"/>
<g id="redStool-9">
	<path class="st8" d="M91.7,17.9c-1.8,0-3.3,1.9-3.3,4.1c0,2.3,1.5,4.1,3.4,4.1c1.2,0,2.3-0.8,2.8-2v-4.3
		C94,18.7,92.9,17.9,91.7,17.9z"/>
	
		<rect x="95.1" y="18.1" transform="matrix(1 -5.374149e-03 5.374149e-03 1 -0.1166 0.5149)" class="st1" width="1.3" height="7.7"/>
	<path class="st8" d="M96.9,26.3v-8.7h-2.3v2.2v4.3v2.2H96.9z M96.3,18.1v7.7H95v-7.7L96.3,18.1z"/>
</g>
<g id="redStool-8">
	<path class="st8" d="M80.6,6h-4.3c-1.2,0.6-2,1.7-2,2.9c0,1.8,1.9,3.3,4.1,3.3c2.3,0,4.1-1.5,4.1-3.4C82.6,7.6,81.8,6.6,80.6,6z"/>
	
		<rect x="74.6" y="4.3" transform="matrix(1 -5.563814e-03 5.563814e-03 1 -2.632666e-02 0.4366)" class="st1" width="7.7" height="1.3"/>
	<path class="st8" d="M82.8,6V3.7h-8.7V6h2.2h4.3H82.8z M74.6,4.3h7.7v1.3h-7.7V4.3z"/>
</g>
<g id="redStool-7">
	<path class="st8" d="M65.5,17.8c-1.2,0-2.3,0.8-2.8,2v4.3c0.6,1.2,1.7,2,2.9,2c1.8,0,3.3-1.9,3.3-4.1
		C68.8,19.7,67.3,17.8,65.5,17.8z"/>
	<rect x="60.9" y="18.1" transform="matrix(1 -5.437370e-03 5.437370e-03 1 -0.1184 0.335)" class="st1" width="1.3" height="7.7"/>
	<path class="st8" d="M62.6,17.6h-2.3v8.7h2.3v-2.2v-4.3V17.6z M60.9,25.8v-7.7h1.3v7.7H60.9z"/>
</g>
<g id="redStool-6">
	<path class="st8" d="M113.2,421.5c-1.8,0-3.3,1.9-3.3,4.1c0,2.3,1.5,4.1,3.4,4.1c1.2,0,2.3-0.8,2.8-2v-4.3
		C115.5,422.3,114.5,421.5,113.2,421.5z"/>
	
		<rect x="116.6" y="421.8" transform="matrix(1 -5.374149e-03 5.374149e-03 1 -2.2858 0.6363)" class="st1" width="1.3" height="7.7"/>
	<path class="st8" d="M118.4,430v-8.7h-2.3v2.2v4.3v2.2H118.4z M117.9,421.8v7.7h-1.3v-7.7H117.9z"/>
</g>
<g id="redStool-5">
	<path class="st8" d="M104.4,438.7c0-1.8-1.9-3.3-4.1-3.3c-2.3,0-4.1,1.5-4.1,3.4c0,1.2,0.8,2.3,2,2.8h4.3
		C103.6,441,104.4,439.9,104.4,438.7z"/>
	
		<rect x="96.5" y="442.1" transform="matrix(1 -5.563814e-03 5.563814e-03 1 -2.4619 0.5652)" class="st1" width="7.7" height="1.3"/>
	<path class="st8" d="M104.7,441.6h-2.2h-4.3H96v2.3h8.7V441.6z M104.2,443.3h-7.7V442h7.7V443.3z"/>
</g>
<g id="redStool-4">
	<path class="st8" d="M87,421.5c-1.2,0-2.3,0.8-2.8,2v4.3c0.6,1.2,1.7,2,2.9,2c1.8,0,3.3-1.9,3.3-4.1
		C90.4,423.3,88.9,421.5,87,421.5z"/>
	
		<rect x="82.4" y="421.8" transform="matrix(1 -5.437370e-03 5.437370e-03 1 -2.3132 0.4579)" class="st1" width="1.3" height="7.7"/>
	<path class="st8" d="M84.2,421.3h-2.3v8.7h2.3v-2.2v-4.3V421.3z M82.4,429.5v-7.7h1.3v7.7H82.4z"/>
</g>
<g id="redStool-3">
	<path class="st8" d="M68.3,408.3c-1.8,0-3.3,1.9-3.3,4.1c0,2.3,1.5,4.1,3.4,4.1c1.2,0,2.3-0.8,2.8-2v-4.3
		C70.5,409.1,69.5,408.3,68.3,408.3z"/>
	
		<rect x="71.6" y="408.5" transform="matrix(1 -5.437370e-03 5.437370e-03 1 -2.2411 0.3989)" class="st1" width="1.3" height="7.7"/>
	<path class="st8" d="M73.4,416.8v-8.7h-2.3v2.2v4.3v2.2H73.4z M72.9,408.5v7.7h-1.3v-7.7H72.9z"/>
</g>
<g id="redStool-2">
	<path class="st8" d="M59.4,425.5c0-1.8-1.9-3.3-4.1-3.3c-2.3,0-4.1,1.5-4.1,3.4c0,1.2,0.8,2.3,2,2.8h4.3
		C58.7,427.7,59.5,426.7,59.4,425.5z"/>
	
		<rect x="51.5" y="428.9" transform="matrix(1 -5.563814e-03 5.563814e-03 1 -2.3891 0.3146)" class="st1" width="7.7" height="1.3"/>
	<path class="st8" d="M59.7,428.3h-2.2h-4.3H51v2.3h8.7V428.3z M59.2,430.1h-7.7v-1.3h7.7V430.1z"/>
</g>
<g id="redStool-1">
	<path class="st8" d="M42.1,408.3c-1.2,0-2.3,0.8-2.8,2v4.3c0.6,1.2,1.7,2,2.9,2c1.8,0,3.3-1.9,3.3-4.1
		C45.4,410.1,43.9,408.3,42.1,408.3z"/>
	
		<rect x="37.4" y="408.6" transform="matrix(1 -5.374149e-03 5.374149e-03 1 -2.2161 0.2104)" class="st1" width="1.3" height="7.7"/>
	<path class="st8" d="M39.2,408.1h-2.3v8.7h2.3v-2.2v-4.3V408.1z M37.5,416.3v-7.7h1.3v7.7H37.5z"/>
</g>
<g id="emporerChair-1">
	<path class="st9" d="M93.1,481c0.1-0.6-0.2-1.1-0.7-1.4c-1.3-0.6-2.9-1-4.6-1c-1.5,0-2.8,0.3-4.1,0.8c-0.6,0.2-0.9,0.8-0.8,1.4
		c0.2,1.8-0.2,3.6-1.3,5.1c-0.5,0.6-1.1,1.2-1.8,1.6c-0.6,0.4-0.8,1.2-0.5,1.8c1.4,2.7,4.7,4.6,8.5,4.6s7-1.8,8.4-4.5
		c0.3-0.6,0.1-1.3-0.4-1.7l0,0C93.8,486.1,92.9,483.6,93.1,481z"/>
</g>
<g id="emporerChair-2">
	<path class="st9" d="M19.2,432.2c0.6,0.1,1.1-0.2,1.4-0.7c0.6-1.3,1-2.9,1-4.6c0-1.5-0.3-2.8-0.8-4.1c-0.2-0.6-0.8-0.9-1.4-0.8
		c-1.8,0.2-3.6-0.2-5.1-1.3c-0.6-0.5-1.2-1.1-1.6-1.8c-0.4-0.6-1.2-0.8-1.8-0.5c-2.7,1.4-4.6,4.7-4.6,8.5s1.8,7,4.5,8.4
		c0.6,0.3,1.3,0.1,1.7-0.4l0,0C14,432.8,16.5,431.9,19.2,432.2z"/>
</g>
<g id="emporerChair-3">
	<path class="st9" d="M67.9,480.9c0.1-0.6-0.2-1.1-0.7-1.4c-1.3-0.6-2.9-1-4.6-1c-1.5,0-2.8,0.3-4.1,0.8c-0.6,0.2-0.9,0.8-0.8,1.4
		c0.2,1.8-0.2,3.6-1.3,5.1c-0.5,0.6-1.1,1.2-1.8,1.6c-0.6,0.4-0.8,1.2-0.5,1.8c1.4,2.7,4.7,4.6,8.5,4.6s7-1.8,8.4-4.5
		c0.3-0.6,0.1-1.3-0.4-1.7l0,0C68.6,486.1,67.6,483.6,67.9,480.9z"/>
</g>
<g id="emporerChair-4">
	<path class="st9" d="M19.1,411.1c0.6,0.1,1.1-0.2,1.4-0.7c0.6-1.3,1-2.9,1-4.6c0-1.5-0.3-2.8-0.8-4.1c-0.2-0.6-0.8-0.9-1.4-0.8
		c-1.8,0.2-3.6-0.2-5.1-1.3c-0.6-0.5-1.2-1.1-1.6-1.8c-0.4-0.6-1.2-0.8-1.8-0.5c-2.7,1.4-4.6,4.7-4.6,8.5s1.8,7,4.5,8.4
		c0.6,0.3,1.3,0.1,1.7-0.4l0,0C14,411.7,16.5,410.8,19.1,411.1z"/>
</g>
<path id="laptopStand" class="st7" d="M182.6,10.8h-5c-1.8,0-3.3-1.5-3.3-3.2l0,0c0-1.8,1.5-3.2,3.3-3.2h5c1.8,0,3.2,1.5,3.2,3.2
	l0,0C185.8,9.3,184.4,10.8,182.6,10.8z"/>
<polygon id="divider-6" class="st10" points="351.5,349.7 351.5,354.4 330.4,354.4 330.4,349.7 328.9,349.7 328.9,359.5 
	330.4,359.5 330.4,354.9 351.5,354.9 351.5,359.5 352.9,359.5 352.9,349.7 "/>
<polygon id="divider-5" class="st10" points="281.6,349.7 281.6,354.4 260.5,354.4 260.5,349.7 259,349.7 259,359.5 260.5,359.5 
	260.5,354.9 281.6,354.9 281.6,359.5 283,359.5 283,349.7 "/>
<polygon id="divider-4" class="st0" points="339.1,101.8 339.1,106.4 323.2,106.4 323.2,101.8 322.1,101.8 322.1,111.5 323.2,111.5 
	323.2,106.9 339.1,106.9 339.1,111.5 340.2,111.5 340.2,101.8 "/>
<polygon id="greenDivider-3" class="st4" points="307,101.8 307,106.4 287.3,106.4 287.3,101.8 285.9,101.8 285.9,111.5 
	287.3,111.5 287.3,106.9 307,106.9 307,111.5 308.4,111.5 308.4,101.8 "/>
<polygon id="greenDivider-2" class="st4" points="284.4,101.8 284.4,106.4 264.6,106.4 264.6,101.8 263.2,101.8 263.2,111.5 
	264.6,111.5 264.6,106.9 284.4,106.9 284.4,111.5 285.8,111.5 285.8,101.8 "/>
<polygon id="greenDivider-1" class="st4" points="261.8,101.8 261.8,106.4 242,106.4 242,101.8 240.7,101.8 240.7,111.5 242,111.5 
	242,106.9 261.8,106.9 261.8,111.5 263.2,111.5 263.2,101.8 "/>
<g id="couchStool-6">
	<path class="st8" d="M353.6,308.7c0.2-0.6,0.1-1.3-0.2-1.9l-3.3-6.2l0,0l0,0c-0.3-0.6-0.8-1-1.5-1.2c-0.6-0.2-1.3-0.1-1.9,0.2
		l-1.6,0.8l-0.2,0.1l0.6,1.1l1.8-0.9c0.2-0.1,0.4-0.1,0.6-0.1c0.1,0,0.2,0,0.4,0.1c0.3,0.1,0.6,0.3,0.7,0.6l0,0l3.3,6.2
		c0.2,0.3,0.2,0.6,0.1,1c-0.1,0.3-0.3,0.6-0.6,0.7l-1.8,0.9l0.6,1.1l1.8-0.9C353,309.9,353.4,309.4,353.6,308.7z"/>
	<polygon class="st11" points="351.2,308.6 347.5,301.5 343.6,308.1 	"/>
</g>
<g id="couchStool-5">
	<path class="st8" d="M344.5,295.4l-1.8,0.9l0.6,1.1l1.8-0.9c0.6-0.3,1-0.8,1.2-1.5c0.2-0.6,0.1-1.3-0.2-1.9l-3.3-6.2l0,0l0,0
		c-0.6-1.2-2.2-1.7-3.4-1l-1.8,0.9l0.6,1.1l1.8-0.9c0.2-0.1,0.4-0.1,0.6-0.1c0.4,0,0.9,0.2,1.1,0.7l3.3,6.2c0.2,0.3,0.2,0.6,0.1,1
		S344.8,295.3,344.5,295.4z"/>
	<polygon class="st11" points="344,294.9 340.2,287.8 336.3,294.4 	"/>
</g>
<g id="couchStool-4">
	<path class="st8" d="M320.8,277v-2c0-1.4-1.1-2.5-2.5-2.5h-7c-1.4,0-2.5,1.1-2.5,2.5v2h1.3v-2c0-0.7,0.6-1.3,1.3-1.3h7
		c0.7,0,1.3,0.6,1.3,1.3v2H320.8z"/>
	<polygon class="st11" points="318.8,275.2 310.8,275.2 314.8,281.7 	"/>
</g>
<g id="couchStool-3">
	<path class="st8" d="M305.3,277v-2c0-1.4-1.1-2.5-2.5-2.5h-7c-1.4,0-2.5,1.1-2.5,2.5v2h1.3v-2c0-0.7,0.6-1.3,1.3-1.3h7
		c0.7,0,1.3,0.6,1.3,1.3v2H305.3z"/>
	<polygon class="st11" points="303.3,275.2 295.3,275.2 299.3,281.7 	"/>
</g>
<g id="couchStool-2">
	<path class="st8" d="M273.3,286.6c0.3-0.6,1.1-0.8,1.7-0.5l1.7,1l0.6-1.1l-1.7-1c-1.2-0.7-2.7-0.3-3.4,0.9l-3.4,5.9l-0.1,0.2
		c-0.7,1.2-0.3,2.7,0.9,3.4l1.7,1l0.6-1.1l-1.7-1c-0.6-0.3-0.8-1.1-0.5-1.7L273.3,286.6z"/>
	<polygon class="st11" points="274.8,287 270.8,293.9 278.4,293.7 	"/>
</g>
<g id="couchStool-1">
	<path class="st8" d="M265.5,300.1c0.2-0.3,0.4-0.5,0.8-0.6c0.1,0,0.2,0,0.3,0c0.2,0,0.4,0.1,0.6,0.2l1.7,1l0.6-1.1l-1.7-1
		c-0.6-0.3-1.3-0.4-1.9-0.3c-0.6,0.2-1.2,0.6-1.5,1.2l-3.5,6.1c-0.3,0.6-0.4,1.3-0.2,1.9c0.2,0.6,0.6,1.2,1.2,1.5l1.7,1l0.6-1.1
		l-1.7-1c-0.3-0.2-0.5-0.4-0.6-0.8c-0.1-0.3,0-0.7,0.1-0.9L265.5,300.1z"/>
	<polygon class="st11" points="267.1,300.4 263.1,307.3 270.7,307.1 	"/>
</g>
<g id="roundCornerTable-3" transform="translate(971 545)">
	<path class="st1" d="M-585.7-281.5h27c0.8,0,1.5,0.7,1.5,1.5v27c0,0.8-0.7,1.5-1.5,1.5h-27c-0.8,0-1.5-0.7-1.5-1.5v-27
		C-587.2-280.9-586.5-281.5-585.7-281.5z"/>
	<path class="st2" d="M-585.7-281.3h27c0.7,0,1.3,0.6,1.3,1.3v27c0,0.7-0.6,1.3-1.3,1.3h-27c-0.7,0-1.3-0.6-1.3-1.3v-27
		C-586.9-280.7-586.4-281.3-585.7-281.3z"/>
</g>
<g id="roundCornerTable-2" transform="translate(340 598)">
	<path class="st1" d="M-270.2-308h27c0.8,0,1.5,0.7,1.5,1.5v27c0,0.8-0.7,1.5-1.5,1.5h-27c-0.8,0-1.5-0.7-1.5-1.5v-27
		C-271.7-307.4-271-308-270.2-308z"/>
	<path class="st2" d="M-270.2-307.8h27c0.7,0,1.3,0.6,1.3,1.3v27c0,0.7-0.6,1.3-1.3,1.3h-27c-0.7,0-1.3-0.6-1.3-1.3v-27
		C-271.4-307.2-270.9-307.8-270.2-307.8z"/>
</g>
<g id="roundCornerTable-1" transform="translate(340 439)">
	<path class="st1" d="M-270.2-228.5h27c0.8,0,1.5,0.7,1.5,1.5v27c0,0.8-0.7,1.5-1.5,1.5h-27c-0.8,0-1.5-0.7-1.5-1.5v-27
		C-271.7-227.9-271-228.5-270.2-228.5z"/>
	<path class="st2" d="M-270.2-228.3h27c0.7,0,1.3,0.6,1.3,1.3v27c0,0.7-0.6,1.3-1.3,1.3h-27c-0.7,0-1.3-0.6-1.3-1.3v-27
		C-271.4-227.7-270.9-228.3-270.2-228.3z"/>
</g>
<path id="smallTable-3" class="st12" d="M90.6,475.3h-5c-1.8,0-3.3-1.5-3.3-3.3l0,0c0-1.8,1.5-3.3,3.3-3.3h5c1.8,0,3.3,1.5,3.3,3.3
	l0,0C93.8,473.8,92.4,475.3,90.6,475.3z"/>
<path id="smallTable-2" class="st12" d="M29.8,464.4l-2.8-4.1c-1-1.5-0.6-3.5,0.9-4.5l0,0c1.5-1,3.5-0.6,4.5,0.9l2.8,4.1
	c1,1.5,0.6,3.5-0.9,4.5l0,0C32.8,466.3,30.8,465.9,29.8,464.4z"/>
<path id="smallTable-1" class="st12" d="M29.8,403.5v5c0,1.8-1.5,3.3-3.2,3.3l0,0c-1.8,0-3.2-1.5-3.2-3.3v-5c0-1.8,1.5-3.3,3.2-3.3
	l0,0C28.4,400.3,29.8,401.7,29.8,403.5z"/>
<path id="latop-stand" class="st7" d="M169.1,15.6h-7.2c-1.2,0-2.1-1-2.1-2.1V6.2c0-1.2,1-2.1,2.1-2.1h7.2c1.2,0,2.1,1,2.1,2.1v7.2
	C171.2,14.6,170.2,15.6,169.1,15.6z"/>
<polygon id="wallOne" class="st0" points="3.8,238.2 4.8,238.2 4.8,224.7 7.3,224.7 7.3,223.7 1.3,223.7 1.3,224.7 3.8,224.7 "/>
<rect id="wallTwo" x="410.2" y="222.1" class="st0" width="54.5" height="1"/>
<polygon id="wallThree" class="st0" points="213.6,100.8 207.2,100.8 207.2,3 206.2,3 206.2,101.7 206.6,101.7 206.6,101.8 
	213.6,101.8 213.6,104.6 214.6,104.6 214.6,98.6 213.6,98.6 "/>
<polygon id="wallFour" class="st0" points="233.6,104.6 234.6,104.6 234.6,101.8 389.3,101.8 389.3,222.7 390.3,222.7 390.3,100.8 
	389.6,100.8 389.6,100.8 234.6,100.8 234.6,98.6 233.6,98.6 233.6,100.8 233.6,100.8 233.6,101.8 233.6,101.8 "/>
<polygon id="wallFive" class="st0" points="56.9,3.6 196.3,3.6 196.3,2.6 56.9,2.6 56.9,0 55.9,0 55.9,6 56.9,6 "/>
<rect id="wallSix" x="409.1" y="219.6" class="st0" width="1" height="6"/>
<polygon id="wallSeven" class="st0" points="461.1,241.1 461.1,242.1 463.8,242.1 463.8,359.5 377.1,359.5 377.1,357.1 376.1,357.1 
	376.1,363.1 377.1,363.1 377.1,360.5 464.6,360.5 464.6,359.9 464.8,359.9 464.8,242.1 467.1,242.1 467.1,241.1 "/>
<polygon id="wallEight" class="st0" points="356.1,359.5 256.6,359.5 256.6,357.1 255.6,357.1 255.6,363.1 256.6,363.1 256.6,360.5 
	356.1,360.5 356.1,363.1 357.1,363.1 357.1,357.1 356.1,357.1 "/>
<polygon id="wallNine" class="st0" points="235.6,359.5 217.8,359.5 217.8,360.2 217.8,360.5 217.8,440.6 218.8,440.6 218.8,360.5 
	235.6,360.5 235.6,363.1 236.6,363.1 236.6,357.1 235.6,357.1 "/>
<polygon id="wallTen" class="st0" points="107.6,494.6 45.9,494.6 4.7,439.6 4.7,274.2 7.3,274.2 7.3,273.2 1.3,273.2 1.3,274.2 
	3.7,274.2 3.7,440.4 4,440.4 45.2,495.3 45.6,495 45.6,495.6 107.6,495.6 107.6,498.2 108.6,498.2 108.6,479.5 107.6,479.5 "/>
<polygon id="wallEleven" class="st0" points="197.6,440.3 164.9,440.3 164.9,440.7 164.7,440.7 164.7,495.2 165.7,495.2 
	165.7,441.3 197.6,441.3 197.6,443.6 198.6,443.6 198.6,437.6 197.6,437.6 "/>
<rect id="wallThirteen" x="1.3" y="186.7" class="st0" width="6" height="1"/>
<polygon id="wallFourteen" class="st0" points="9.2,140.6 6.6,140.6 6.6,6.4 5.6,6.4 5.6,140.6 3.2,140.6 3.2,141.6 9.2,141.6 "/>
<rect id="right-pillar" x="307.3" y="219" class="st0" width="8" height="8"/>
<rect id="bottom-pillar" x="135.8" y="366.5" class="st0" width="8" height="8"/>
<rect id="top-pillar" x="143.3" y="70" class="st0" width="8" height="8"/>
<rect id="central-pillar" x="143.3" y="219" class="st0" width="8" height="8"/>
<g id="bottomRightTable">
	<path class="st13" d="M433.8,327.7c0-9.9,12.3-18,27.8-18.7C446.1,309.7,433.8,317.8,433.8,327.7c0,10.4,13.4,18.8,30,18.8l0,0
		C447.3,346.5,433.8,338,433.8,327.7z"/>
	<path class="st13" d="M434.3,327.7c0,10.1,13.2,18.2,29.5,18.3v-36.5C447.6,309.5,434.3,317.6,434.3,327.7z"/>
	<path class="st0" d="M433.8,327.7c0,10.3,13.5,18.7,30,18.8V346c-16.3,0-29.5-8.2-29.5-18.3s13.2-18.2,29.5-18.3V309l0,0
		c-0.7,0-1.5,0-2.2,0.1C446.1,309.7,433.8,317.8,433.8,327.7z"/>
</g>
<g id="northwest-couches">
	<rect x="377.3" y="150.5" class="st8" width="10" height="32.5"/>
	<rect x="377.3" y="205" class="st8" width="10" height="17.5"/>
	<rect x="377.3" y="101.5" class="st8" width="10" height="16"/>
	<rect x="377.3" y="123" class="st8" width="10" height="22"/>
	<rect x="377.3" y="188.5" class="st8" width="10" height="11"/>
	<polygon class="st14" points="387.3,101.5 387.3,117.5 377.3,117.5 377.3,123 387.3,123 387.3,145 377.3,145 377.3,150.5 
		387.3,150.5 387.3,183 377.3,183 377.3,188.5 387.3,188.5 387.3,199.5 377.3,199.5 377.3,205 387.3,205 387.3,222.5 389.6,222.5 
		389.6,101.5 	"/>
</g>
<g id="colab-couch">
	<rect x="292.3" y="282" class="st1" width="30" height="5"/>
	<rect x="291.8" y="281.5" class="st1" width="0" height="5.5"/>
	<path class="st11" d="M322.8,287v-5.5h-31l0,0v5.5H322.8z M322.3,287h-30v-5h30V287z"/>
	<rect x="261.7" y="300" transform="matrix(0.5 -0.866 0.866 0.5 -123.5695 390.8532)" class="st1" width="30" height="4.8"/>
	<polygon class="st1" points="286.5,290.2 286.5,290.2 282,287.5 266.5,314.4 266.5,314.4 282,287.5 	"/>
	<polygon class="st11" points="271.3,316.6 267.2,314.2 282.2,288.2 286.3,290.6 286.5,290.2 282,287.5 266.5,314.4 266.5,314.4 
		271,317 	"/>
	<path class="st1" d="M347.7,314.4l-10.2-17.7L347.7,314.4z"/>
	<rect x="335" y="287.4" transform="matrix(0.866 -0.5 0.5 0.866 -105.9887 209.216)" class="st1" width="4.8" height="30"/>
	<polygon class="st11" points="327.8,290.6 332,288.2 347,314.2 342.8,316.6 343.1,317 347.7,314.4 347.7,314.4 337.5,296.7 
		332.2,287.5 327.6,290.2 	"/>
	<polygon class="st8" points="342.8,316.6 327.8,290.6 327.6,290.2 326.1,287.5 326.1,287.3 323.7,291.1 323.3,290.8 325.6,287 
		326.1,287.2 326.1,287 322.8,287 291.8,287 291.8,287 288.5,287 290.7,290.9 290.3,291.1 288.1,287.2 288.5,287 288.1,287 
		288.1,287.5 286.5,290.2 286.5,290.2 286.3,290.6 271.3,316.6 271,317 268.8,320.8 269.2,321 269.2,320.6 273.5,320.8 290.7,291 
		323.4,291 340.9,321.2 340.9,321 345.1,320.6 343.1,317 	"/>
	<polygon class="st11" points="325.6,287 323.3,290.8 323.7,291.1 326.1,287.3 326.1,287.2 326.1,287.2 	"/>
	<polygon class="st11" points="290.3,291.1 290.7,290.9 288.5,287 288.5,286.9 288.5,287 288.1,287.2 	"/>
	<polygon class="st8" points="341,321.5 338.7,329.8 338.7,329.9 342.6,330.9 345.2,321 	"/>
	<polygon class="st8" points="345.2,321 345.3,320.9 345.3,320.8 345.3,320.8 345.3,320.8 345.3,320.8 345.2,320.7 	"/>
	<polygon class="st8" points="273.5,321.3 269.3,321.1 271.9,330.9 274.1,330.3 275.8,329.9 	"/>
	<polygon class="st11" points="340.9,321 340.9,321.2 323.4,291 290.7,291 273.5,320.8 273.5,320.8 273.5,321.3 273.5,321.3 
		275.8,329.9 274.1,330.3 274.1,330.3 284.2,327.6 283.2,324 296.3,301.5 317.9,301.5 331.2,324.6 330.4,327.6 338.7,329.8 
		341,321.5 345.2,321 345.2,321 345.2,321 345.2,320.7 345.2,320.5 345.1,320.6 	"/>
	<polygon class="st15" points="273.5,321.3 273.5,321.3 273.5,320.8 273.5,320.8 269.2,320.6 269.2,321 269.2,321.1 269.3,321.1 	
		"/>
	<circle class="st13" cx="307.3" cy="317.5" r="10"/>
	<path class="st13" d="M307.3,328c-5.8,0-10.5-4.7-10.5-10.5c0-5.4,4.1-9.9,9.4-10.4c-5.3,0.5-9.4,5-9.4,10.4
		C296.8,323.3,301.5,328,307.3,328c5.5,0,10-4.2,10.5-9.6C317.3,323.7,312.8,328,307.3,328z"/>
	<path class="st13" d="M317.8,316.4c-0.5-4.9-4.4-8.9-9.4-9.4C313.3,307.5,317.3,311.4,317.8,316.4z"/>
	<path class="st11" d="M317.8,316.4c-0.5-4.9-4.4-8.9-9.4-9.4c-0.4,0-0.7-0.1-1.1-0.1s-0.7,0-1.1,0.1c-5.3,0.5-9.4,5-9.4,10.4
		c0,5.8,4.7,10.5,10.5,10.5c5.5,0,10-4.2,10.5-9.6c0-0.3,0-0.6,0-0.9S317.8,316.7,317.8,316.4z M307.3,327.5c-5.5,0-10-4.5-10-10
		s4.5-10,10-10s10,4.5,10,10S312.8,327.5,307.3,327.5z"/>
</g>
<g id="central-desk">
	<rect x="140.8" y="227.5" class="st13" width="13.5" height="33.5"/>
	<polygon class="st13" points="140.3,261 140.3,227 140.3,227 140.3,261 	"/>
	<path class="st15" d="M154.8,227h-14.5l0,0v34l0,0v5v7.5h33l0,0V261h-18.5V227z M140.8,227.5h13.5V261h-13.5V227.5z M172.8,273h-32
		v-7.5v-4h32V273z"/>
	<rect x="175.8" y="231" class="st13" width="7.5" height="34.5"/>
	<polygon class="st13" points="175.3,266 175.3,230.5 175.3,230.5 175.3,266 183.3,266 183.3,266 	"/>
	<polygon class="st15" points="183.3,266 183.3,265.5 175.8,265.5 175.8,231 183.3,231 183.3,230.5 175.3,230.5 175.3,230.5 
		175.3,266 	"/>
	<polygon class="st13" points="184.8,227 184.8,227 184.8,266 199.3,266 199.3,266 184.8,266 	"/>
	<rect x="185.3" y="227.5" class="st13" width="13.5" height="38"/>
	<path class="st15" d="M199.3,227h-14.5l0,0v39h14.5l0,0V227z M198.8,265.5h-13.5v-38h13.5V265.5z"/>
	<polygon class="st1" points="140.3,266 140.3,261 140.3,261 140.3,266 140.3,273.5 173.3,273.5 173.3,273.5 140.3,273.5 	"/>
	<polygon class="st1" points="140.8,261.5 140.8,265.5 140.8,273 172.8,273 172.8,261.5 	"/>
	<polygon class="st11" points="183.3,227 183.3,230.5 183.3,231 183.3,265.5 183.3,266 183.3,266 184.3,266 184.8,266 184.8,227 	
		"/>
</g>
<g id="bottom-table">
	<polygon class="st13" points="87.8,359.5 87.8,359.5 87.8,383.5 135.8,383.5 135.8,383.5 87.8,383.5 	"/>
	<rect x="88.3" y="360" class="st13" width="47" height="23"/>
	<path class="st0" d="M135.8,359.5h-48l0,0v24h48l0,0V359.5z M135.3,383h-47v-23h47V383z"/>
</g>
<g id="middle-table">
	<polygon class="st13" points="259.3,211 259.3,211 259.3,235 307.3,235 307.3,235 259.3,235 	"/>
	<rect x="259.8" y="211.5" class="st13" width="47" height="23"/>
	<path class="st0" d="M259.3,211L259.3,211v24h48l0,0v-24H259.3z M306.8,234.5h-47v-23h47V234.5z"/>
</g>
<g id="top-table">
	<polygon class="st13" points="259.3,146.5 259.3,146.5 259.3,170.5 307.3,170.5 307.3,170.5 259.3,170.5 	"/>
	<rect x="259.8" y="147" class="st13" width="47" height="23"/>
	<path class="st0" d="M259.3,146.5L259.3,146.5v24h48l0,0v-24H259.3z M306.8,170h-47v-23h47V170z"/>
</g>
<rect id="east-shelf" x="290.8" y="351.4" class="st13" width="33" height="7.8"/>
<rect id="couch-tv" x="291.8" y="358.5" class="st16" width="30.9" height="1.1"/>
<rect id="north-tv" x="463" y="312.4" class="st16" width="1.1" height="30.9"/>
<rect id="projector" x="74.2" y="3.8" class="st17" width="49.5" height="1.1"/>
<rect id="se-tv" x="23.3" y="449.3" transform="matrix(0.7983 -0.6023 0.6023 0.7983 -274.822 107.9884)" class="st16" width="1" height="30"/>
<polygon id="northEastCornerBlock" class="st1" points="218.8,360.5 218.8,440.6 166.5,440.6 166.5,499 469,499 469,442.9 
	469,440.6 469,360.5 "/>
<g id="emporerChair-1_1_">
	<path class="st9" d="M228.9,310c0.1-0.6-0.2-1.1-0.7-1.4c-1.3-0.6-2.9-1-4.6-1c-1.5,0-2.8,0.3-4.1,0.8c-0.6,0.2-0.9,0.8-0.8,1.4
		c0.2,1.8-0.2,3.6-1.3,5.1c-0.5,0.6-1.1,1.2-1.8,1.6c-0.6,0.4-0.8,1.2-0.5,1.8c1.4,2.7,4.7,4.6,8.5,4.6s7-1.8,8.4-4.5
		c0.3-0.6,0.1-1.3-0.4-1.7l0,0C229.6,315.1,228.7,312.6,228.9,310z"/>
</g>
<g id="emporerChair-3_1_">
	<path class="st18" d="M161.8,326.2c0.1-0.5-0.2-0.8-0.6-1.1c-1.2-0.5-2.6-0.8-4.1-0.8c-1.3,0-2.5,0.2-3.7,0.6
		c-0.5,0.2-0.8,0.6-0.7,1.1c0.2,1.4-0.2,2.7-1.2,3.9c-0.4,0.5-1,0.9-1.6,1.2c-0.5,0.3-0.7,0.9-0.4,1.4c1.2,2,4.2,3.5,7.6,3.5
		s6.2-1.4,7.5-3.4c0.3-0.5,0.1-1-0.4-1.3l0,0C162.4,330.2,161.5,328.3,161.8,326.2z"/>
</g>
<g id="emporerChair-3_2_">
	<path class="st18" d="M169.3,309.2c-0.5-0.1-0.8,0.2-1.1,0.6c-0.5,1.2-0.8,2.6-0.8,4.1c0,1.3,0.2,2.5,0.6,3.7
		c0.2,0.5,0.6,0.8,1.1,0.7c1.4-0.2,2.7,0.2,3.9,1.2c0.5,0.4,0.9,1,1.2,1.6c0.3,0.5,0.9,0.7,1.4,0.4c2-1.2,3.5-4.2,3.5-7.6
		c0-3.4-1.4-6.2-3.4-7.5c-0.5-0.3-1-0.1-1.3,0.4l0,0C173.3,308.6,171.4,309.5,169.3,309.2z"/>
</g>
<g id="emporerChair-3_3_">
	<path class="st18" d="M152.3,302c-0.1,0.5,0.2,0.8,0.6,1.1c1.2,0.5,2.6,0.8,4.1,0.8c1.3,0,2.5-0.2,3.7-0.6c0.5-0.2,0.8-0.6,0.7-1.1
		c-0.2-1.4,0.2-2.7,1.2-3.9c0.4-0.5,1-0.9,1.6-1.2c0.5-0.3,0.7-0.9,0.4-1.4c-1.2-2-4.2-3.5-7.6-3.5c-3.4,0-6.2,1.4-7.5,3.4
		c-0.3,0.5-0.1,1,0.4,1.3l0,0C151.6,298,152.5,299.9,152.3,302z"/>
</g>
<g id="emporerChair-3_4_">
	<path class="st18" d="M143.7,318.8c0.5,0.1,0.8-0.2,1.1-0.6c0.5-1.2,0.8-2.6,0.8-4.1c0-1.3-0.2-2.5-0.6-3.7
		c-0.2-0.5-0.6-0.8-1.1-0.7c-1.4,0.2-2.7-0.2-3.9-1.2c-0.5-0.4-0.9-1-1.2-1.6c-0.3-0.5-0.9-0.7-1.4-0.4c-2,1.2-3.5,4.2-3.5,7.6
		c0,3.4,1.4,6.2,3.4,7.5c0.5,0.3,1,0.1,1.3-0.4l0,0C139.8,319.4,141.7,318.5,143.7,318.8z"/>
</g>
<polygon id="wall-limits" class="st19" points="236.6,0 236.6,-0.4 0,-0.4 0,0 0,3 0,439.3 0,499 4.8,499 4.8,499 27.6,498.8 
	27.6,499 107.8,499 107.8,495.2 45.3,495.2 4.8,442.2 4.8,3 207.2,3 207.2,100.5 390.3,100.5 390.3,222.1 469,222.1 469,100.5 
	469,83.6 469,0 "/>
</svg>
