<?xml version="1.0" encoding="utf-8"?>
<!-- Generator: Adobe Illustrator 24.1.0, SVG Export Plug-In . SVG Version: 6.00 Build 0)  -->
<svg version="1.1" id="masterPlan" xmlns="http://www.w3.org/2000/svg" xmlns:xlink="http://www.w3.org/1999/xlink" x="0px" y="0px"
	 viewBox="0 0 469 499" style="enable-background:new 0 0 469 499;" xml:space="preserve">
<style type="text/css">
	.st0{fill:#FFFFFF;}
	.st1{fill:#0094B3;}
</style>
<rect id="left-bottom-corner-block29" x="17.9" y="475.3" transform="matrix(-1.836970e-16 1 -1 -1.836970e-16 516.8782 469.4996)" class="st0" width="11.6" height="35.7"/>
<rect id="left-bottom-corner-block28" x="41.5" y="488.7" class="st0" width="1.2" height="6.4"/>
<rect id="left-bottom-corner-block27" x="42.7" y="490.3" class="st0" width="1.2" height="4.8"/>
<rect id="left-bottom-corner-block26" x="43.9" y="491.9" class="st0" width="1.2" height="3.2"/>
<rect id="left-bottom-corner-block25" x="45.1" y="493.5" class="st0" width="1.2" height="1.6"/>
<rect id="left-bottom-corner-block24" x="46.3" y="494.4" class="st0" width="0.7" height="0.7"/>
<rect id="left-bottom-corner-block27" x="13.5" y="468.1" transform="matrix(-1.836970e-16 1 -1 -1.836970e-16 500.8956 462.2377)" class="st0" width="11.6" height="27"/>
<rect id="left-bottom-corner-block26" x="9.2" y="460.7" transform="matrix(-1.836970e-16 1 -1 -1.836970e-16 484.9937 454.8951)" class="st0" width="11.6" height="18.4"/>
<rect id="left-bottom-corner-block25" x="4.8" y="453.6" transform="matrix(-1.836970e-16 1 -1 -1.836970e-16 468.9194 447.7249)" class="st0" width="11.6" height="9.5"/>
<rect id="left-bottom-corner-block24" x="32.8" y="480.2" class="st0" width="3.5" height="7.2"/>
<rect id="left-bottom-corner-block23" x="36.3" y="485.1" class="st0" width="3.5" height="2.3"/>
<rect id="left-bottom-corner-block22" x="36.3" y="482.2" class="st0" width="1.5" height="2.9"/>
<rect id="left-bottom-corner-block21" x="32.8" y="477.5" class="st0" width="1.4" height="2.7"/>
<rect id="left-bottom-corner-block20" x="24.3" y="469.6" class="st0" width="4.2" height="6.1"/>
<rect id="left-bottom-corner-block19" x="28.4" y="471.2" class="st0" width="1.2" height="4.6"/>
<rect id="left-bottom-corner-block18" x="29.6" y="472.7" class="st0" width="1.2" height="3.1"/>
<rect id="left-bottom-corner-block17" x="30.8" y="474.2" class="st0" width="1.2" height="1.5"/>
<rect id="left-bottom-corner-block16" x="34.2" y="479" class="st0" width="1.2" height="1.2"/>
<rect id="left-bottom-corner-block15" x="36.3" y="481.5" class="st0" width="1" height="0.7"/>
<rect id="left-bottom-corner-block14" x="5.8" y="446.4" class="st0" width="5.1" height="6.1"/>
<rect id="left-bottom-corner-block13" x="5.8" y="444.2" class="st0" width="3.4" height="2.2"/>
<rect id="left-bottom-corner-block12" x="5.8" y="442" class="st0" width="1.8" height="2.2"/>
<rect id="left-bottom-corner-block11" x="7.6" y="443.5" class="st0" width="1.2" height="0.7"/>
<rect id="left-bottom-corner-block10" x="9.9" y="460.1" transform="matrix(-1.836970e-16 1 -1 -1.836970e-16 480.5807 449.1088)" class="st0" width="11.6" height="9.5"/>
<rect id="left-bottom-corner-block9" x="7.7" y="457.3" transform="matrix(-1.836970e-16 1 -1 -1.836970e-16 475.6173 448.519)" class="st0" width="11.6" height="9.5"/>
<rect id="left-bottom-corner-block8" x="3.8" y="451.5" transform="matrix(-1.836970e-16 1 -1 -1.836970e-16 464.8811 445.6182)" class="st0" width="11.6" height="7.6"/>
<rect id="left-bottom-corner-block7" x="12.1" y="463.1" transform="matrix(-1.836970e-16 1 -1 -1.836970e-16 485.7979 449.9606)" class="st0" width="11.6" height="9.5"/>
<rect id="left-bottom-corner-block6" x="15.8" y="467.9" transform="matrix(-1.836970e-16 1 -1 -1.836970e-16 494.2731 451.1144)" class="st0" width="11.6" height="9.5"/>
<rect id="left-bottom-corner-block5" x="6.5" y="455.7" transform="matrix(-1.836970e-16 1 -1 -1.836970e-16 472.7286 448.1524)" class="st0" width="11.6" height="9.5"/>
<rect id="left-bottom-corner-block4" x="4.8" y="453.1" transform="matrix(-1.836970e-16 1 -1 -1.836970e-16 467.5138 446.2821)" class="st0" width="11.6" height="7.6"/>
<rect id="left-bottom-corner-block3" x="3.4" y="450.7" transform="matrix(-1.836970e-16 1 -1 -1.836970e-16 463.0032 444.6651)" class="st0" width="11.6" height="6.2"/>
<rect id="left-bottom-corner-block2" x="16.5" y="462.2" transform="matrix(-1.836970e-16 1 -1 -1.836970e-16 483.8175 443.937)" class="st0" width="6.9" height="3.3"/>
<rect id="left-bottom-corner-block1" x="16.7" y="459.6" transform="matrix(-1.836970e-16 1 -1 -1.836970e-16 479.4389 441.3364)" class="st0" width="4.6" height="1.5"/>
<rect id="right-middle-blocker" x="390.3" y="100.6" class="st0" width="74.4" height="121.5"/>
<rect id="top-right-area-blocker" x="207.2" class="st0" width="257.5" height="100.8"/>
<rect id="top-left-blocker" x="0.1" class="st0" width="207.1" height="3"/>
<rect id="right-side-blocker" x="464.7" class="st0" width="4.3" height="360.1"/>
<rect id="left-side-blocker-1" class="st0" width="5.4" height="140.3"/>
<rect id="left-side-blocker-2" y="141.6" class="st0" width="5.1" height="45.1"/>
<rect id="left-side-blocker-3" y="188" class="st0" width="5.1" height="35.4"/>
<rect id="left-side-blocker-4" y="224.9" class="st0" width="5.4" height="47.9"/>
<rect id="left-side-blocker-5" y="274.3" class="st0" width="5.8" height="224.7"/>
<rect id="bottom-right-area-blocker" x="218.8" y="360.1" class="st0" width="250.2" height="138.9"/>
<rect id="bottom-left-area-blocker" x="165.7" y="441.3" class="st0" width="53.1" height="57.7"/>
<rect id="bottom-wall-tv-blocker" x="41.5" y="495.1" class="st0" width="68.4" height="3.9"/>
<polygon id="wallEighteen" class="st1" points="9.2,140.6 6.6,140.6 6.6,6.4 5.6,6.4 5.6,140.6 3.2,140.6 3.2,141.6 9.2,141.6 "/>
<rect id="wallSeventeen" x="3.2" y="186.7" class="st1" width="6" height="1"/>
<polygon id="wallSixteen" class="st1" points="5.5,238.2 6.5,238.2 6.5,224.7 9,224.7 9,223.7 3,223.7 3,224.7 5.5,224.7 "/>
<polygon id="wallFifteen" class="st1" points="7,439.4 7,274 9.7,274 9.7,273 3.7,273 3.7,274 6,274 6,440.1 7.1,439.5 "/>
<polygon id="wallFourteen_1_" class="st1" points="7.1,439.5 6,440.1 6,440.2 6.3,440.2 47.5,495.1 48,494.8 48,494.9 48.2,494.4 
	"/>
<polygon id="wallThirteen_1_" class="st1" points="48.2,494.4 48.2,494.4 48,494.9 48,495.4 110,495.4 110,494.4 "/>
<polygon id="wallTwelve" class="st1" points="110,479.3 110,493.8 110,494.4 110,495.4 110,496.5 110,498 111,498 111,479.3 "/>
<polygon id="wallEleven" class="st1" points="197.6,440.3 164.9,440.3 164.9,440.7 164.7,440.7 164.7,495.2 165.7,495.2 
	165.7,441.3 197.6,441.3 197.6,443.6 198.6,443.6 198.6,437.6 197.6,437.6 "/>
<polygon id="wallTen" class="st1" points="235.6,359.5 217.8,359.5 217.8,360.2 217.8,360.5 217.8,440.6 218.8,440.6 218.8,360.5 
	235.6,360.5 235.6,363.1 236.6,363.1 236.6,357.1 235.6,357.1 "/>
<polygon id="wallNine_1_" class="st1" points="356.1,359.5 256.6,359.5 256.6,357.1 255.6,357.1 255.6,363.1 256.6,363.1 
	256.6,360.5 356.1,360.5 356.1,363.1 357.1,363.1 357.1,357.1 356.1,357.1 "/>
<polygon id="wallEight_1_" class="st1" points="377.1,359.5 377.1,357.1 376.1,357.1 376.1,363.1 377.1,363.1 377.1,360.5 
	464.6,360.5 464.6,360.3 463.8,359.5 "/>
<polygon id="wallSeven" class="st1" points="464.8,359.9 464.8,242.1 467.1,242.1 467.1,241.1 461.1,241.1 461.1,242.1 463.8,242.1 
	463.8,359.5 463.8,359.5 464.6,360.3 464.6,359.9 "/>
<rect id="wallSix" x="410.2" y="222.1" class="st1" width="54.5" height="1"/>
<rect id="wallFive_1_" x="409.1" y="219.6" class="st1" width="1" height="6"/>
<polygon id="wallFour" class="st1" points="390.3,222 390.3,102 389.3,102 389.3,222 389.3,222 389.3,222.9 390.3,222.9 390.3,222 
	"/>
<polygon id="wallThree" class="st1" points="234.8,104.6 234.8,102 390.3,102 390.3,101 234.8,101 234.8,98.6 233.6,98.6 
	233.6,104.6 "/>
<polygon id="wallTwo_1_" class="st1" points="213.6,100.8 207.2,100.8 207.2,3 206.2,3 206.2,101.7 206.6,101.7 206.6,101.8 
	213.6,101.8 213.6,104.6 214.6,104.6 214.6,98.6 213.6,98.6 "/>
<polygon id="wallOne_1_" class="st1" points="56.9,3.6 196.3,3.6 196.3,2.6 56.9,2.6 56.9,0 55.9,0 55.9,6 56.9,6 "/>
</svg>
